<?xml version="1.0" encoding="utf-8" standalone="no"?>
<!DOCTYPE svg PUBLIC "-//W3C//DTD SVG 1.1//EN"
  "http://www.w3.org/Graphics/SVG/1.1/DTD/svg11.dtd">
<!-- Created with matplotlib (https://matplotlib.org/) -->
<svg height="345.6pt" version="1.1" viewBox="0 0 460.8 345.6" width="460.8pt" xmlns="http://www.w3.org/2000/svg" xmlns:xlink="http://www.w3.org/1999/xlink">
 <defs>
  <style type="text/css">
*{stroke-linecap:butt;stroke-linejoin:round;}
  </style>
 </defs>
 <g id="figure_1">
  <g id="patch_1">
   <path d="M 0 345.6 
L 460.8 345.6 
L 460.8 0 
L 0 0 
z
" style="fill:#ffffff;"/>
  </g>
  <g id="axes_1">
   <g id="patch_2">
    <path d="M 57.6 307.584 
L 414.72 307.584 
L 414.72 41.472 
L 57.6 41.472 
z
" style="fill:#ffffff;"/>
   </g>
   <g id="matplotlib.axis_1">
    <g id="xtick_1">
     <g id="line2d_1">
      <defs>
       <path d="M 0 0 
L 0 3.5 
" id="m6a646f8b1b" style="stroke:#000000;stroke-width:0.8;"/>
      </defs>
      <g>
       <use style="stroke:#000000;stroke-width:0.8;" x="73.832727" xlink:href="#m6a646f8b1b" y="307.584"/>
      </g>
     </g>
     <g id="text_1">
      <!-- 0 -->
      <defs>
       <path d="M 31.78125 66.40625 
Q 24.171875 66.40625 20.328125 58.90625 
Q 16.5 51.421875 16.5 36.375 
Q 16.5 21.390625 20.328125 13.890625 
Q 24.171875 6.390625 31.78125 6.390625 
Q 39.453125 6.390625 43.28125 13.890625 
Q 47.125 21.390625 47.125 36.375 
Q 47.125 51.421875 43.28125 58.90625 
Q 39.453125 66.40625 31.78125 66.40625 
z
M 31.78125 74.21875 
Q 44.046875 74.21875 50.515625 64.515625 
Q 56.984375 54.828125 56.984375 36.375 
Q 56.984375 17.96875 50.515625 8.265625 
Q 44.046875 -1.421875 31.78125 -1.421875 
Q 19.53125 -1.421875 13.0625 8.265625 
Q 6.59375 17.96875 6.59375 36.375 
Q 6.59375 54.828125 13.0625 64.515625 
Q 19.53125 74.21875 31.78125 74.21875 
z
" id="DejaVuSans-48"/>
      </defs>
      <g transform="translate(70.651477 322.182437)scale(0.1 -0.1)">
       <use xlink:href="#DejaVuSans-48"/>
      </g>
     </g>
    </g>
    <g id="xtick_2">
     <g id="line2d_2">
      <g>
       <use style="stroke:#000000;stroke-width:0.8;" x="138.776625" xlink:href="#m6a646f8b1b" y="307.584"/>
      </g>
     </g>
     <g id="text_2">
      <!-- 1000 -->
      <defs>
       <path d="M 12.40625 8.296875 
L 28.515625 8.296875 
L 28.515625 63.921875 
L 10.984375 60.40625 
L 10.984375 69.390625 
L 28.421875 72.90625 
L 38.28125 72.90625 
L 38.28125 8.296875 
L 54.390625 8.296875 
L 54.390625 0 
L 12.40625 0 
z
" id="DejaVuSans-49"/>
      </defs>
      <g transform="translate(126.051625 322.182437)scale(0.1 -0.1)">
       <use xlink:href="#DejaVuSans-49"/>
       <use x="63.623047" xlink:href="#DejaVuSans-48"/>
       <use x="127.246094" xlink:href="#DejaVuSans-48"/>
       <use x="190.869141" xlink:href="#DejaVuSans-48"/>
      </g>
     </g>
    </g>
    <g id="xtick_3">
     <g id="line2d_3">
      <g>
       <use style="stroke:#000000;stroke-width:0.8;" x="203.720523" xlink:href="#m6a646f8b1b" y="307.584"/>
      </g>
     </g>
     <g id="text_3">
      <!-- 2000 -->
      <defs>
       <path d="M 19.1875 8.296875 
L 53.609375 8.296875 
L 53.609375 0 
L 7.328125 0 
L 7.328125 8.296875 
Q 12.9375 14.109375 22.625 23.890625 
Q 32.328125 33.6875 34.8125 36.53125 
Q 39.546875 41.84375 41.421875 45.53125 
Q 43.3125 49.21875 43.3125 52.78125 
Q 43.3125 58.59375 39.234375 62.25 
Q 35.15625 65.921875 28.609375 65.921875 
Q 23.96875 65.921875 18.8125 64.3125 
Q 13.671875 62.703125 7.8125 59.421875 
L 7.8125 69.390625 
Q 13.765625 71.78125 18.9375 73 
Q 24.125 74.21875 28.421875 74.21875 
Q 39.75 74.21875 46.484375 68.546875 
Q 53.21875 62.890625 53.21875 53.421875 
Q 53.21875 48.921875 51.53125 44.890625 
Q 49.859375 40.875 45.40625 35.40625 
Q 44.1875 33.984375 37.640625 27.21875 
Q 31.109375 20.453125 19.1875 8.296875 
z
" id="DejaVuSans-50"/>
      </defs>
      <g transform="translate(190.995523 322.182437)scale(0.1 -0.1)">
       <use xlink:href="#DejaVuSans-50"/>
       <use x="63.623047" xlink:href="#DejaVuSans-48"/>
       <use x="127.246094" xlink:href="#DejaVuSans-48"/>
       <use x="190.869141" xlink:href="#DejaVuSans-48"/>
      </g>
     </g>
    </g>
    <g id="xtick_4">
     <g id="line2d_4">
      <g>
       <use style="stroke:#000000;stroke-width:0.8;" x="268.664421" xlink:href="#m6a646f8b1b" y="307.584"/>
      </g>
     </g>
     <g id="text_4">
      <!-- 3000 -->
      <defs>
       <path d="M 40.578125 39.3125 
Q 47.65625 37.796875 51.625 33 
Q 55.609375 28.21875 55.609375 21.1875 
Q 55.609375 10.40625 48.1875 4.484375 
Q 40.765625 -1.421875 27.09375 -1.421875 
Q 22.515625 -1.421875 17.65625 -0.515625 
Q 12.796875 0.390625 7.625 2.203125 
L 7.625 11.71875 
Q 11.71875 9.328125 16.59375 8.109375 
Q 21.484375 6.890625 26.8125 6.890625 
Q 36.078125 6.890625 40.9375 10.546875 
Q 45.796875 14.203125 45.796875 21.1875 
Q 45.796875 27.640625 41.28125 31.265625 
Q 36.765625 34.90625 28.71875 34.90625 
L 20.21875 34.90625 
L 20.21875 43.015625 
L 29.109375 43.015625 
Q 36.375 43.015625 40.234375 45.921875 
Q 44.09375 48.828125 44.09375 54.296875 
Q 44.09375 59.90625 40.109375 62.90625 
Q 36.140625 65.921875 28.71875 65.921875 
Q 24.65625 65.921875 20.015625 65.03125 
Q 15.375 64.15625 9.8125 62.3125 
L 9.8125 71.09375 
Q 15.4375 72.65625 20.34375 73.4375 
Q 25.25 74.21875 29.59375 74.21875 
Q 40.828125 74.21875 47.359375 69.109375 
Q 53.90625 64.015625 53.90625 55.328125 
Q 53.90625 49.265625 50.4375 45.09375 
Q 46.96875 40.921875 40.578125 39.3125 
z
" id="DejaVuSans-51"/>
      </defs>
      <g transform="translate(255.939421 322.182437)scale(0.1 -0.1)">
       <use xlink:href="#DejaVuSans-51"/>
       <use x="63.623047" xlink:href="#DejaVuSans-48"/>
       <use x="127.246094" xlink:href="#DejaVuSans-48"/>
       <use x="190.869141" xlink:href="#DejaVuSans-48"/>
      </g>
     </g>
    </g>
    <g id="xtick_5">
     <g id="line2d_5">
      <g>
       <use style="stroke:#000000;stroke-width:0.8;" x="333.608319" xlink:href="#m6a646f8b1b" y="307.584"/>
      </g>
     </g>
     <g id="text_5">
      <!-- 4000 -->
      <defs>
       <path d="M 37.796875 64.3125 
L 12.890625 25.390625 
L 37.796875 25.390625 
z
M 35.203125 72.90625 
L 47.609375 72.90625 
L 47.609375 25.390625 
L 58.015625 25.390625 
L 58.015625 17.1875 
L 47.609375 17.1875 
L 47.609375 0 
L 37.796875 0 
L 37.796875 17.1875 
L 4.890625 17.1875 
L 4.890625 26.703125 
z
" id="DejaVuSans-52"/>
      </defs>
      <g transform="translate(320.883319 322.182437)scale(0.1 -0.1)">
       <use xlink:href="#DejaVuSans-52"/>
       <use x="63.623047" xlink:href="#DejaVuSans-48"/>
       <use x="127.246094" xlink:href="#DejaVuSans-48"/>
       <use x="190.869141" xlink:href="#DejaVuSans-48"/>
      </g>
     </g>
    </g>
    <g id="xtick_6">
     <g id="line2d_6">
      <g>
       <use style="stroke:#000000;stroke-width:0.8;" x="398.552217" xlink:href="#m6a646f8b1b" y="307.584"/>
      </g>
     </g>
     <g id="text_6">
      <!-- 5000 -->
      <defs>
       <path d="M 10.796875 72.90625 
L 49.515625 72.90625 
L 49.515625 64.59375 
L 19.828125 64.59375 
L 19.828125 46.734375 
Q 21.96875 47.46875 24.109375 47.828125 
Q 26.265625 48.1875 28.421875 48.1875 
Q 40.625 48.1875 47.75 41.5 
Q 54.890625 34.8125 54.890625 23.390625 
Q 54.890625 11.625 47.5625 5.09375 
Q 40.234375 -1.421875 26.90625 -1.421875 
Q 22.3125 -1.421875 17.546875 -0.640625 
Q 12.796875 0.140625 7.71875 1.703125 
L 7.71875 11.625 
Q 12.109375 9.234375 16.796875 8.0625 
Q 21.484375 6.890625 26.703125 6.890625 
Q 35.15625 6.890625 40.078125 11.328125 
Q 45.015625 15.765625 45.015625 23.390625 
Q 45.015625 31 40.078125 35.4375 
Q 35.15625 39.890625 26.703125 39.890625 
Q 22.75 39.890625 18.8125 39.015625 
Q 14.890625 38.140625 10.796875 36.28125 
z
" id="DejaVuSans-53"/>
      </defs>
      <g transform="translate(385.827217 322.182437)scale(0.1 -0.1)">
       <use xlink:href="#DejaVuSans-53"/>
       <use x="63.623047" xlink:href="#DejaVuSans-48"/>
       <use x="127.246094" xlink:href="#DejaVuSans-48"/>
       <use x="190.869141" xlink:href="#DejaVuSans-48"/>
      </g>
     </g>
    </g>
    <g id="text_7">
     <!-- Epoch -->
     <defs>
      <path d="M 9.8125 72.90625 
L 55.90625 72.90625 
L 55.90625 64.59375 
L 19.671875 64.59375 
L 19.671875 43.015625 
L 54.390625 43.015625 
L 54.390625 34.71875 
L 19.671875 34.71875 
L 19.671875 8.296875 
L 56.78125 8.296875 
L 56.78125 0 
L 9.8125 0 
z
" id="DejaVuSans-69"/>
      <path d="M 18.109375 8.203125 
L 18.109375 -20.796875 
L 9.078125 -20.796875 
L 9.078125 54.6875 
L 18.109375 54.6875 
L 18.109375 46.390625 
Q 20.953125 51.265625 25.265625 53.625 
Q 29.59375 56 35.59375 56 
Q 45.5625 56 51.78125 48.09375 
Q 58.015625 40.1875 58.015625 27.296875 
Q 58.015625 14.40625 51.78125 6.484375 
Q 45.5625 -1.421875 35.59375 -1.421875 
Q 29.59375 -1.421875 25.265625 0.953125 
Q 20.953125 3.328125 18.109375 8.203125 
z
M 48.6875 27.296875 
Q 48.6875 37.203125 44.609375 42.84375 
Q 40.53125 48.484375 33.40625 48.484375 
Q 26.265625 48.484375 22.1875 42.84375 
Q 18.109375 37.203125 18.109375 27.296875 
Q 18.109375 17.390625 22.1875 11.75 
Q 26.265625 6.109375 33.40625 6.109375 
Q 40.53125 6.109375 44.609375 11.75 
Q 48.6875 17.390625 48.6875 27.296875 
z
" id="DejaVuSans-112"/>
      <path d="M 30.609375 48.390625 
Q 23.390625 48.390625 19.1875 42.75 
Q 14.984375 37.109375 14.984375 27.296875 
Q 14.984375 17.484375 19.15625 11.84375 
Q 23.34375 6.203125 30.609375 6.203125 
Q 37.796875 6.203125 41.984375 11.859375 
Q 46.1875 17.53125 46.1875 27.296875 
Q 46.1875 37.015625 41.984375 42.703125 
Q 37.796875 48.390625 30.609375 48.390625 
z
M 30.609375 56 
Q 42.328125 56 49.015625 48.375 
Q 55.71875 40.765625 55.71875 27.296875 
Q 55.71875 13.875 49.015625 6.21875 
Q 42.328125 -1.421875 30.609375 -1.421875 
Q 18.84375 -1.421875 12.171875 6.21875 
Q 5.515625 13.875 5.515625 27.296875 
Q 5.515625 40.765625 12.171875 48.375 
Q 18.84375 56 30.609375 56 
z
" id="DejaVuSans-111"/>
      <path d="M 48.78125 52.59375 
L 48.78125 44.1875 
Q 44.96875 46.296875 41.140625 47.34375 
Q 37.3125 48.390625 33.40625 48.390625 
Q 24.65625 48.390625 19.8125 42.84375 
Q 14.984375 37.3125 14.984375 27.296875 
Q 14.984375 17.28125 19.8125 11.734375 
Q 24.65625 6.203125 33.40625 6.203125 
Q 37.3125 6.203125 41.140625 7.25 
Q 44.96875 8.296875 48.78125 10.40625 
L 48.78125 2.09375 
Q 45.015625 0.34375 40.984375 -0.53125 
Q 36.96875 -1.421875 32.421875 -1.421875 
Q 20.0625 -1.421875 12.78125 6.34375 
Q 5.515625 14.109375 5.515625 27.296875 
Q 5.515625 40.671875 12.859375 48.328125 
Q 20.21875 56 33.015625 56 
Q 37.15625 56 41.109375 55.140625 
Q 45.0625 54.296875 48.78125 52.59375 
z
" id="DejaVuSans-99"/>
      <path d="M 54.890625 33.015625 
L 54.890625 0 
L 45.90625 0 
L 45.90625 32.71875 
Q 45.90625 40.484375 42.875 44.328125 
Q 39.84375 48.1875 33.796875 48.1875 
Q 26.515625 48.1875 22.3125 43.546875 
Q 18.109375 38.921875 18.109375 30.90625 
L 18.109375 0 
L 9.078125 0 
L 9.078125 75.984375 
L 18.109375 75.984375 
L 18.109375 46.1875 
Q 21.34375 51.125 25.703125 53.5625 
Q 30.078125 56 35.796875 56 
Q 45.21875 56 50.046875 50.171875 
Q 54.890625 44.34375 54.890625 33.015625 
z
" id="DejaVuSans-104"/>
     </defs>
     <g transform="translate(220.849063 335.860562)scale(0.1 -0.1)">
      <use xlink:href="#DejaVuSans-69"/>
      <use x="63.183594" xlink:href="#DejaVuSans-112"/>
      <use x="126.660156" xlink:href="#DejaVuSans-111"/>
      <use x="187.841797" xlink:href="#DejaVuSans-99"/>
      <use x="242.822266" xlink:href="#DejaVuSans-104"/>
     </g>
    </g>
   </g>
   <g id="matplotlib.axis_2">
    <g id="ytick_1">
     <g id="line2d_7">
      <defs>
       <path d="M 0 0 
L -3.5 0 
" id="m74a8aa9308" style="stroke:#000000;stroke-width:0.8;"/>
      </defs>
      <g>
       <use style="stroke:#000000;stroke-width:0.8;" x="57.6" xlink:href="#m74a8aa9308" y="295.488177"/>
      </g>
     </g>
     <g id="text_8">
      <!-- 0.0 -->
      <defs>
       <path d="M 10.6875 12.40625 
L 21 12.40625 
L 21 0 
L 10.6875 0 
z
" id="DejaVuSans-46"/>
      </defs>
      <g transform="translate(34.696875 299.287396)scale(0.1 -0.1)">
       <use xlink:href="#DejaVuSans-48"/>
       <use x="63.623047" xlink:href="#DejaVuSans-46"/>
       <use x="95.410156" xlink:href="#DejaVuSans-48"/>
      </g>
     </g>
    </g>
    <g id="ytick_2">
     <g id="line2d_8">
      <g>
       <use style="stroke:#000000;stroke-width:0.8;" x="57.6" xlink:href="#m74a8aa9308" y="261.231721"/>
      </g>
     </g>
     <g id="text_9">
      <!-- 0.1 -->
      <g transform="translate(34.696875 265.03094)scale(0.1 -0.1)">
       <use xlink:href="#DejaVuSans-48"/>
       <use x="63.623047" xlink:href="#DejaVuSans-46"/>
       <use x="95.410156" xlink:href="#DejaVuSans-49"/>
      </g>
     </g>
    </g>
    <g id="ytick_3">
     <g id="line2d_9">
      <g>
       <use style="stroke:#000000;stroke-width:0.8;" x="57.6" xlink:href="#m74a8aa9308" y="226.975265"/>
      </g>
     </g>
     <g id="text_10">
      <!-- 0.2 -->
      <g transform="translate(34.696875 230.774484)scale(0.1 -0.1)">
       <use xlink:href="#DejaVuSans-48"/>
       <use x="63.623047" xlink:href="#DejaVuSans-46"/>
       <use x="95.410156" xlink:href="#DejaVuSans-50"/>
      </g>
     </g>
    </g>
    <g id="ytick_4">
     <g id="line2d_10">
      <g>
       <use style="stroke:#000000;stroke-width:0.8;" x="57.6" xlink:href="#m74a8aa9308" y="192.718809"/>
      </g>
     </g>
     <g id="text_11">
      <!-- 0.3 -->
      <g transform="translate(34.696875 196.518027)scale(0.1 -0.1)">
       <use xlink:href="#DejaVuSans-48"/>
       <use x="63.623047" xlink:href="#DejaVuSans-46"/>
       <use x="95.410156" xlink:href="#DejaVuSans-51"/>
      </g>
     </g>
    </g>
    <g id="ytick_5">
     <g id="line2d_11">
      <g>
       <use style="stroke:#000000;stroke-width:0.8;" x="57.6" xlink:href="#m74a8aa9308" y="158.462352"/>
      </g>
     </g>
     <g id="text_12">
      <!-- 0.4 -->
      <g transform="translate(34.696875 162.261571)scale(0.1 -0.1)">
       <use xlink:href="#DejaVuSans-48"/>
       <use x="63.623047" xlink:href="#DejaVuSans-46"/>
       <use x="95.410156" xlink:href="#DejaVuSans-52"/>
      </g>
     </g>
    </g>
    <g id="ytick_6">
     <g id="line2d_12">
      <g>
       <use style="stroke:#000000;stroke-width:0.8;" x="57.6" xlink:href="#m74a8aa9308" y="124.205896"/>
      </g>
     </g>
     <g id="text_13">
      <!-- 0.5 -->
      <g transform="translate(34.696875 128.005115)scale(0.1 -0.1)">
       <use xlink:href="#DejaVuSans-48"/>
       <use x="63.623047" xlink:href="#DejaVuSans-46"/>
       <use x="95.410156" xlink:href="#DejaVuSans-53"/>
      </g>
     </g>
    </g>
    <g id="ytick_7">
     <g id="line2d_13">
      <g>
       <use style="stroke:#000000;stroke-width:0.8;" x="57.6" xlink:href="#m74a8aa9308" y="89.94944"/>
      </g>
     </g>
     <g id="text_14">
      <!-- 0.6 -->
      <defs>
       <path d="M 33.015625 40.375 
Q 26.375 40.375 22.484375 35.828125 
Q 18.609375 31.296875 18.609375 23.390625 
Q 18.609375 15.53125 22.484375 10.953125 
Q 26.375 6.390625 33.015625 6.390625 
Q 39.65625 6.390625 43.53125 10.953125 
Q 47.40625 15.53125 47.40625 23.390625 
Q 47.40625 31.296875 43.53125 35.828125 
Q 39.65625 40.375 33.015625 40.375 
z
M 52.59375 71.296875 
L 52.59375 62.3125 
Q 48.875 64.0625 45.09375 64.984375 
Q 41.3125 65.921875 37.59375 65.921875 
Q 27.828125 65.921875 22.671875 59.328125 
Q 17.53125 52.734375 16.796875 39.40625 
Q 19.671875 43.65625 24.015625 45.921875 
Q 28.375 48.1875 33.59375 48.1875 
Q 44.578125 48.1875 50.953125 41.515625 
Q 57.328125 34.859375 57.328125 23.390625 
Q 57.328125 12.15625 50.6875 5.359375 
Q 44.046875 -1.421875 33.015625 -1.421875 
Q 20.359375 -1.421875 13.671875 8.265625 
Q 6.984375 17.96875 6.984375 36.375 
Q 6.984375 53.65625 15.1875 63.9375 
Q 23.390625 74.21875 37.203125 74.21875 
Q 40.921875 74.21875 44.703125 73.484375 
Q 48.484375 72.75 52.59375 71.296875 
z
" id="DejaVuSans-54"/>
      </defs>
      <g transform="translate(34.696875 93.748659)scale(0.1 -0.1)">
       <use xlink:href="#DejaVuSans-48"/>
       <use x="63.623047" xlink:href="#DejaVuSans-46"/>
       <use x="95.410156" xlink:href="#DejaVuSans-54"/>
      </g>
     </g>
    </g>
    <g id="ytick_8">
     <g id="line2d_14">
      <g>
       <use style="stroke:#000000;stroke-width:0.8;" x="57.6" xlink:href="#m74a8aa9308" y="55.692984"/>
      </g>
     </g>
     <g id="text_15">
      <!-- 0.7 -->
      <defs>
       <path d="M 8.203125 72.90625 
L 55.078125 72.90625 
L 55.078125 68.703125 
L 28.609375 0 
L 18.3125 0 
L 43.21875 64.59375 
L 8.203125 64.59375 
z
" id="DejaVuSans-55"/>
      </defs>
      <g transform="translate(34.696875 59.492202)scale(0.1 -0.1)">
       <use xlink:href="#DejaVuSans-48"/>
       <use x="63.623047" xlink:href="#DejaVuSans-46"/>
       <use x="95.410156" xlink:href="#DejaVuSans-55"/>
      </g>
     </g>
    </g>
    <g id="text_16">
     <!-- Loss -->
     <defs>
      <path d="M 9.8125 72.90625 
L 19.671875 72.90625 
L 19.671875 8.296875 
L 55.171875 8.296875 
L 55.171875 0 
L 9.8125 0 
z
" id="DejaVuSans-76"/>
      <path d="M 44.28125 53.078125 
L 44.28125 44.578125 
Q 40.484375 46.53125 36.375 47.5 
Q 32.28125 48.484375 27.875 48.484375 
Q 21.1875 48.484375 17.84375 46.4375 
Q 14.5 44.390625 14.5 40.28125 
Q 14.5 37.15625 16.890625 35.375 
Q 19.28125 33.59375 26.515625 31.984375 
L 29.59375 31.296875 
Q 39.15625 29.25 43.1875 25.515625 
Q 47.21875 21.78125 47.21875 15.09375 
Q 47.21875 7.46875 41.1875 3.015625 
Q 35.15625 -1.421875 24.609375 -1.421875 
Q 20.21875 -1.421875 15.453125 -0.5625 
Q 10.6875 0.296875 5.421875 2 
L 5.421875 11.28125 
Q 10.40625 8.6875 15.234375 7.390625 
Q 20.0625 6.109375 24.8125 6.109375 
Q 31.15625 6.109375 34.5625 8.28125 
Q 37.984375 10.453125 37.984375 14.40625 
Q 37.984375 18.0625 35.515625 20.015625 
Q 33.0625 21.96875 24.703125 23.78125 
L 21.578125 24.515625 
Q 13.234375 26.265625 9.515625 29.90625 
Q 5.8125 33.546875 5.8125 39.890625 
Q 5.8125 47.609375 11.28125 51.796875 
Q 16.75 56 26.8125 56 
Q 31.78125 56 36.171875 55.265625 
Q 40.578125 54.546875 44.28125 53.078125 
z
" id="DejaVuSans-115"/>
     </defs>
     <g transform="translate(28.617188 185.581906)rotate(-90)scale(0.1 -0.1)">
      <use xlink:href="#DejaVuSans-76"/>
      <use x="55.697266" xlink:href="#DejaVuSans-111"/>
      <use x="116.878906" xlink:href="#DejaVuSans-115"/>
      <use x="168.978516" xlink:href="#DejaVuSans-115"/>
     </g>
    </g>
   </g>
   <g id="line2d_15">
    <path clip-path="url(#p3426affa4f)" d="M 73.832727 65.016536 
L 74.417222 80.761102 
L 74.741942 91.778307 
L 75.326437 117.244823 
L 76.04082 149.401608 
L 76.625315 166.717723 
L 77.404642 183.339099 
L 78.054081 193.767067 
L 79.223071 207.261947 
L 80.262173 216.506668 
L 81.885771 227.783307 
L 82.989817 233.962235 
L 84.54847 241.164667 
L 86.172068 247.334219 
L 87.860609 252.722603 
L 90.19859 258.858676 
L 92.081963 262.949063 
L 94.484887 267.306498 
L 96.498148 270.37654 
L 98.641296 273.178732 
L 101.239052 276.05317 
L 103.447145 278.135345 
L 105.785125 280.045607 
L 108.382881 281.873794 
L 111.110525 283.520855 
L 113.903112 284.968784 
L 117.475027 286.531758 
L 121.111885 287.855359 
L 125.268294 289.106191 
L 129.554592 290.16339 
L 135.074823 291.252792 
L 140.85483 292.142991 
L 147.219332 292.899024 
L 154.557992 293.554896 
L 163.585194 294.133382 
L 174.495769 294.603472 
L 188.198931 294.968439 
L 207.617157 295.242799 
L 237.556294 295.410726 
L 297.239736 295.480331 
L 398.487273 295.488 
L 398.487273 295.488 
" style="fill:none;stroke:#1f77b4;stroke-linecap:square;stroke-width:1.5;"/>
   </g>
   <g id="line2d_16">
    <path clip-path="url(#p3426affa4f)" d="M 73.832727 53.568 
L 73.962615 55.448947 
L 74.027559 54.904632 
L 74.612054 65.838093 
L 75.391381 93.524843 
L 75.975876 118.933202 
L 77.079922 148.795771 
L 77.599473 160.604541 
L 78.638576 175.127645 
L 79.807566 188.333853 
L 80.002398 189.791627 
L 80.262173 192.413967 
L 80.457005 193.840583 
L 80.911612 196.957213 
L 81.106444 198.364973 
L 81.431163 200.387174 
L 82.665097 208.392621 
L 82.794985 208.958926 
L 83.249592 211.147237 
L 83.899031 213.866141 
L 83.963975 213.665224 
L 84.093863 214.640194 
L 84.158807 214.304086 
L 84.288695 215.247918 
L 84.353639 215.011993 
L 84.54847 215.96555 
L 86.3669 221.496394 
L 86.431843 221.355946 
L 86.496787 221.973343 
L 86.561731 221.829649 
L 86.626675 221.901476 
L 86.756563 222.698127 
L 86.821507 222.095369 
L 86.886451 222.774686 
L 86.951395 222.748739 
L 87.21117 223.565328 
L 87.276114 223.307918 
L 87.406002 223.86163 
L 87.470946 223.796465 
L 87.600834 224.236411 
L 87.665778 224.198407 
L 87.795665 224.747735 
L 87.860609 224.227902 
L 87.925553 224.49229 
L 87.990497 226.052279 
L 88.055441 224.968902 
L 88.120385 224.783293 
L 88.250273 225.71078 
L 88.315216 225.358394 
L 88.38016 225.816961 
L 88.445104 225.677891 
L 89.029599 226.791079 
L 89.094543 227.522845 
L 89.159487 226.775184 
L 89.224431 226.912401 
L 89.289375 227.631752 
L 89.354319 227.570691 
L 89.419263 226.933891 
L 89.549151 228.141601 
L 89.614094 227.56725 
L 89.679038 227.691144 
L 89.808926 228.030724 
L 89.87387 227.977278 
L 90.003758 228.539801 
L 90.068702 228.238706 
L 90.19859 228.871284 
L 90.263533 228.755752 
L 90.328477 228.752449 
L 90.458365 229.326605 
L 90.523309 229.075469 
L 90.653197 229.681493 
L 90.718141 229.501494 
L 90.848029 229.304308 
L 90.977916 230.122996 
L 91.04286 229.83601 
L 91.107804 229.955565 
L 91.36758 230.395158 
L 91.432524 230.272821 
L 91.562411 230.573896 
L 91.627355 230.587617 
L 91.692299 230.731874 
L 91.757243 230.523606 
L 91.887131 231.19427 
L 91.952075 230.804405 
L 92.017019 230.851026 
L 92.146906 231.296301 
L 92.21185 230.957885 
L 92.276794 231.160977 
L 92.406682 231.489622 
L 92.471626 231.48779 
L 92.53657 231.342171 
L 92.861289 232.117443 
L 92.926233 231.427014 
L 92.991177 231.911289 
L 93.056121 232.007454 
L 93.186009 231.788712 
L 93.315897 232.228157 
L 93.380841 232.11534 
L 93.445784 232.082349 
L 93.575672 232.589053 
L 93.640616 232.383445 
L 93.70556 232.41005 
L 94.095223 232.772227 
L 94.160167 233.016733 
L 94.225111 232.993093 
L 94.290055 232.787607 
L 94.354999 232.942211 
L 94.419943 233.077432 
L 94.484887 233.016513 
L 94.549831 232.970643 
L 94.679718 233.364826 
L 94.744662 233.242209 
L 94.809606 233.194414 
L 95.004438 233.449098 
L 95.069382 233.390543 
L 95.134326 233.62922 
L 95.19927 233.495157 
L 95.394101 233.880831 
L 95.459045 233.682614 
L 95.523989 233.668418 
L 95.718821 234.156965 
L 95.783765 233.923638 
L 95.848709 233.665059 
L 95.978596 234.326994 
L 96.04354 233.955425 
L 96.108484 234.187005 
L 96.173428 234.400705 
L 96.303316 233.945445 
L 96.433204 234.630775 
L 96.563092 234.169971 
L 96.628035 234.309143 
L 96.822867 234.717308 
L 96.952755 234.323258 
L 97.147587 234.782458 
L 97.277474 234.544262 
L 97.472306 235.012446 
L 97.602194 234.636344 
L 97.667138 234.779155 
L 97.732082 235.07777 
L 97.797026 235.020364 
L 97.861969 234.790457 
L 97.926913 234.899788 
L 97.991857 235.173252 
L 98.056801 234.970063 
L 98.121745 235.085432 
L 98.186689 234.89893 
L 98.251633 234.931987 
L 98.316577 235.23002 
L 98.381521 235.121266 
L 98.446465 235.025484 
L 98.511408 235.076509 
L 98.576352 235.501861 
L 98.70624 234.990139 
L 98.836128 235.430315 
L 98.901072 235.238545 
L 98.966016 235.408447 
L 99.03096 235.349948 
L 99.160847 235.63868 
L 99.225791 235.409126 
L 99.290735 235.433541 
L 99.420623 235.672329 
L 99.485567 235.506011 
L 99.680399 235.744718 
L 99.745343 235.678807 
L 99.810286 235.918724 
L 99.87523 235.891726 
L 100.005118 235.744407 
L 100.19995 236.087385 
L 100.264894 235.961128 
L 100.394782 236.242821 
L 100.459725 236.154485 
L 100.524669 236.075517 
L 100.589613 236.15618 
L 100.654557 236.21375 
L 100.719501 236.466382 
L 100.784445 236.409869 
L 100.914333 236.19228 
L 101.04422 236.639337 
L 101.174108 236.325342 
L 101.303996 236.640036 
L 101.36894 236.523824 
L 101.498828 236.681419 
L 101.563772 236.611812 
L 101.628716 236.684773 
L 101.823547 236.843894 
L 101.888491 236.789392 
L 101.953435 236.981621 
L 102.018379 236.884705 
L 102.083323 236.766972 
L 102.213211 237.055694 
L 102.278155 237.07867 
L 102.343098 236.982535 
L 102.408042 237.068175 
L 102.472986 237.05966 
L 102.53793 237.187224 
L 102.602874 237.094964 
L 102.732762 237.236499 
L 102.797706 237.134351 
L 102.86265 237.270021 
L 102.927594 237.216775 
L 102.992537 237.084065 
L 103.057481 237.145913 
L 103.317257 237.476258 
L 103.512089 237.185086 
L 103.641976 237.51396 
L 103.771864 237.537176 
L 103.901752 237.25266 
L 104.03164 237.591714 
L 104.096584 237.477294 
L 104.226471 237.694219 
L 104.291415 237.6279 
L 104.356359 237.547431 
L 104.421303 237.655271 
L 104.486247 237.609059 
L 104.810967 237.765209 
L 104.940854 237.510887 
L 105.070742 238.028617 
L 105.135686 237.847225 
L 105.395462 237.707634 
L 105.525349 238.052767 
L 105.590293 237.893105 
L 105.785125 237.739947 
L 105.979957 238.021501 
L 106.109845 237.921548 
L 106.239732 238.171174 
L 106.36962 237.864285 
L 106.434564 237.873075 
L 106.564452 238.140521 
L 106.759283 237.996453 
L 106.824227 238.262158 
L 106.889171 238.132052 
L 107.148947 238.056713 
L 107.278835 238.208514 
L 107.473666 238.010486 
L 107.53861 238.07365 
L 107.603554 237.926035 
L 107.733442 238.380478 
L 107.86333 238.103793 
L 107.928274 238.17856 
L 108.123105 238.374858 
L 108.252993 238.028372 
L 108.317937 238.146687 
L 108.447825 238.522713 
L 108.512769 238.496353 
L 108.577713 238.529813 
L 108.7076 238.091108 
L 108.772544 238.08754 
L 108.902432 238.555551 
L 108.967376 238.500375 
L 109.227152 238.324639 
L 109.421983 238.476766 
L 109.486927 238.374281 
L 109.681759 238.548042 
L 109.746703 238.362546 
L 109.811647 238.470942 
L 109.876591 238.377124 
L 110.006478 238.565811 
L 110.20131 238.317957 
L 110.396142 238.499911 
L 110.590973 238.403582 
L 110.720861 238.430922 
L 110.785805 238.658965 
L 110.850749 238.457425 
L 110.915693 238.569298 
L 110.980637 238.557588 
L 111.110525 238.29053 
L 111.240412 238.561105 
L 111.3703 238.34056 
L 111.565132 238.585015 
L 111.630076 238.265721 
L 111.69502 238.349248 
L 111.889851 238.649879 
L 112.149627 238.265226 
L 112.279515 238.516695 
L 112.53929 238.423525 
L 112.669178 238.339993 
L 112.734122 238.099362 
L 112.799066 238.263695 
L 112.86401 238.476557 
L 112.928954 238.431009 
L 113.123785 238.098453 
L 113.253673 238.525148 
L 113.383561 237.995708 
L 113.448505 238.035243 
L 113.578393 238.51767 
L 113.643337 238.432387 
L 113.773224 238.012798 
L 113.903112 238.234154 
L 114.227832 238.049383 
L 114.292776 237.959802 
L 114.35772 238.00775 
L 114.487607 238.11048 
L 115.266934 237.84723 
L 115.331878 237.898521 
L 115.461766 237.767588 
L 115.52671 237.905178 
L 115.656598 237.722305 
L 115.851429 237.82282 
L 116.046261 237.6174 
L 116.111205 237.644419 
L 116.306036 237.422756 
L 116.435924 237.762723 
L 116.500868 237.61716 
L 116.630756 237.380454 
L 116.825588 237.473282 
L 116.955475 237.364411 
L 117.020419 237.474731 
L 117.085363 237.403405 
L 117.345139 237.257219 
L 117.604914 237.345769 
L 117.734802 237.028344 
L 117.799746 237.276499 
L 117.86469 237.226668 
L 118.18941 237.014627 
L 118.384241 237.003622 
L 118.449185 237.005403 
L 118.514129 236.808529 
L 118.579073 236.849871 
L 118.773905 236.93325 
L 118.968736 236.831321 
L 119.098624 236.815737 
L 119.293456 236.604222 
L 119.423344 236.844521 
L 119.488287 236.724548 
L 119.748063 236.599929 
L 119.813007 236.681991 
L 119.877951 236.585365 
L 120.007839 236.502732 
L 121.176829 236.084583 
L 121.306717 236.164771 
L 121.761324 235.927014 
L 121.826268 236.064782 
L 121.891212 235.995931 
L 122.086043 235.83365 
L 122.215931 235.894431 
L 122.345819 235.681839 
L 122.410763 235.80263 
L 122.540651 235.687276 
L 122.930314 235.631998 
L 123.125146 235.496231 
L 123.255034 235.491448 
L 123.319977 235.543091 
L 123.579753 235.312863 
L 123.839529 235.336339 
L 123.969416 235.445506 
L 124.164248 235.074105 
L 124.294136 235.212644 
L 124.683799 235.104334 
L 124.813687 234.846582 
L 124.878631 235.044223 
L 124.943575 234.982064 
L 125.398182 234.799171 
L 125.52807 234.795858 
L 125.722902 234.597426 
L 125.917733 234.605558 
L 126.112565 234.498269 
L 126.307397 234.445146 
L 126.437285 234.453558 
L 126.632116 234.336162 
L 126.762004 234.313528 
L 126.956836 234.2382 
L 127.086724 234.227347 
L 127.216611 234.141789 
L 127.281555 234.1565 
L 127.346499 234.022463 
L 127.411443 234.078635 
L 127.476387 234.169303 
L 127.671219 234.012943 
L 127.801106 233.985654 
L 129.554592 233.299543 
L 129.619536 233.380855 
L 129.684479 233.229728 
L 129.749423 233.258768 
L 129.814367 233.304852 
L 129.944255 233.083317 
L 130.009199 233.151811 
L 130.268975 232.988356 
L 130.333918 233.108917 
L 130.398862 233.035084 
L 130.788526 232.793881 
L 130.918414 232.872334 
L 131.113245 232.722968 
L 131.373021 232.626572 
L 131.69774 232.480693 
L 131.827628 232.541626 
L 131.957516 232.30659 
L 132.02246 232.399979 
L 133.321338 231.802443 
L 133.451226 231.890789 
L 133.646057 231.714996 
L 133.970777 231.559336 
L 134.100664 231.634404 
L 134.36044 231.384391 
L 134.490328 231.364177 
L 134.68516 231.317485 
L 134.944935 231.20893 
L 135.464486 230.937829 
L 135.594374 231.068507 
L 135.85415 230.826799 
L 135.984038 230.774558 
L 136.113925 230.723354 
L 136.308757 230.71704 
L 136.373701 230.594289 
L 136.438645 230.64949 
L 136.763364 230.413617 
L 136.893252 230.473974 
L 137.088084 230.319809 
L 137.153028 230.36351 
L 137.282915 230.218518 
L 137.412803 230.266502 
L 137.672579 230.026024 
L 137.932354 230.043772 
L 138.257074 229.733713 
L 138.322018 229.8392 
L 138.386962 229.783555 
L 138.451906 229.834698 
L 138.646737 229.692141 
L 138.841569 229.652387 
L 138.971457 229.480152 
L 139.036401 229.592535 
L 139.101345 229.541494 
L 139.491008 229.267897 
L 139.620896 229.362358 
L 139.880671 229.114907 
L 140.140447 229.042682 
L 140.335279 228.961381 
L 140.53011 228.89205 
L 140.919774 228.631562 
L 141.049662 228.63735 
L 141.244493 228.55925 
L 141.374381 228.521455 
L 141.634157 228.367898 
L 141.764044 228.399925 
L 142.02382 228.154771 
L 142.088764 228.195975 
L 142.283596 228.093158 
L 142.413483 228.063521 
L 142.608315 227.918596 
L 142.673259 227.905012 
L 142.738203 228.021755 
L 142.803147 227.928529 
L 142.997979 227.697867 
L 143.19281 227.761833 
L 143.387642 227.574004 
L 148.323378 225.314392 
L 148.583154 225.248078 
L 148.713042 225.187354 
L 148.907873 225.089417 
L 150.85619 224.153844 
L 151.960236 223.621055 
L 152.155068 223.531704 
L 152.414844 223.398494 
L 152.739563 223.248781 
L 153.583834 222.847278 
L 155.0126 222.122454 
L 155.142487 222.05322 
L 155.662039 221.825565 
L 156.116646 221.57499 
L 156.441365 221.386824 
L 156.636197 221.312664 
L 156.831029 221.247478 
L 157.155748 221.065718 
L 157.415524 220.920314 
L 157.740243 220.757487 
L 157.870131 220.738298 
L 158.064963 220.583118 
L 158.454626 220.400435 
L 158.584514 220.31994 
L 158.974177 220.145863 
L 159.104065 220.073525 
L 159.363841 219.976165 
L 159.68856 219.776636 
L 159.883392 219.694977 
L 160.143168 219.502151 
L 160.273055 219.560869 
L 160.532831 219.357205 
L 160.792607 219.169565 
L 160.987438 219.131679 
L 161.896653 218.609554 
L 162.026541 218.612652 
L 162.286316 218.386697 
L 164.234633 217.386627 
L 165.078904 216.949815 
L 168.455986 215.149384 
L 168.650818 215.05454 
L 168.84565 214.953847 
L 169.365201 214.623522 
L 169.560033 214.553303 
L 169.689921 214.471726 
L 171.313518 213.615163 
L 171.50835 213.539803 
L 171.638237 213.508129 
L 171.898013 213.266462 
L 172.027901 213.250729 
L 172.482508 212.99119 
L 172.612396 212.922309 
L 172.807228 212.832391 
L 172.937115 212.787251 
L 173.521611 212.423405 
L 173.651498 212.425411 
L 173.976218 212.276882 
L 174.106106 212.152636 
L 174.235993 212.17185 
L 174.430825 211.997624 
L 174.560713 211.944893 
L 174.950376 211.768381 
L 175.275096 211.559414 
L 177.158469 210.66651 
L 177.3533 210.517343 
L 177.548132 210.498655 
L 181.769486 208.384158 
L 181.899373 208.348946 
L 182.224093 208.164098 
L 183.00342 207.765101 
L 183.198251 207.683581 
L 183.782746 207.411423 
L 184.237354 207.190945 
L 184.367241 207.091864 
L 184.756905 206.890998 
L 184.886793 206.847956 
L 185.601176 206.493921 
L 185.796007 206.430164 
L 186.120727 206.223223 
L 186.380502 206.131524 
L 190.536912 204.082564 
L 190.796687 203.942851 
L 191.121407 203.808385 
L 192.615116 203.04008 
L 194.303658 202.205926 
L 194.433546 202.097504 
L 194.693321 202.002538 
L 194.888153 201.903417 
L 195.082985 201.754842 
L 195.34276 201.623439 
L 198.395123 200.122643 
L 198.525011 200.060019 
L 198.654899 199.94927 
L 198.914675 199.857601 
L 199.49917 199.534224 
L 199.694001 199.47889 
L 199.758945 199.4906 
L 199.953777 199.333215 
L 200.538272 199.016474 
L 200.733104 198.93526 
L 201.382543 198.562531 
L 201.51243 198.614343 
L 201.707262 198.413803 
L 202.681421 197.95497 
L 203.136028 197.702629 
L 203.915355 197.322366 
L 204.110186 197.224143 
L 204.305018 197.147033 
L 204.564794 196.935079 
L 204.694681 197.023798 
L 204.889513 196.801819 
L 205.019401 196.789659 
L 205.863672 196.319484 
L 206.253335 196.123702 
L 206.448167 196.037771 
L 206.578055 195.977751 
L 207.097606 195.704654 
L 207.357381 195.642419 
L 207.552213 195.436376 
L 207.682101 195.38973 
L 208.656259 194.966007 
L 208.851091 194.826774 
L 211.513791 193.455665 
L 211.643679 193.438075 
L 211.83851 193.22072 
L 212.942557 192.732852 
L 213.137388 192.579377 
L 213.202332 192.604645 
L 213.33222 192.467137 
L 213.462108 192.44384 
L 213.916715 192.1989 
L 214.241434 192.054021 
L 215.150649 191.569992 
L 215.280537 191.546102 
L 215.540312 191.368155 
L 215.6702 191.324052 
L 216.514471 190.857684 
L 216.644359 190.838042 
L 216.904134 190.697818 
L 221.190432 188.445674 
L 221.320319 188.341009 
L 221.450207 188.339519 
L 222.489309 187.760993 
L 222.684141 187.7257 
L 223.008861 187.475778 
L 223.268636 187.43876 
L 223.463468 187.302385 
L 223.853131 187.120324 
L 224.437626 186.769494 
L 224.567514 186.792863 
L 224.762346 186.553896 
L 224.957178 186.564809 
L 225.281897 186.387914 
L 225.346841 186.381033 
L 225.541673 186.173153 
L 225.866392 186.093695 
L 226.061224 185.945212 
L 226.450887 185.762937 
L 226.905495 185.536731 
L 227.100326 185.41323 
L 227.230214 185.40932 
L 227.425046 185.252077 
L 227.619877 185.127944 
L 228.074485 184.949885 
L 228.33426 184.728671 
L 228.594036 184.689366 
L 228.788868 184.578902 
L 229.438307 184.205306 
L 230.087746 183.836947 
L 231.451567 183.214858 
L 231.711343 183.025416 
L 232.036062 182.858996 
L 232.16595 182.825591 
L 232.360782 182.688941 
L 232.815389 182.486665 
L 233.269997 182.1912 
L 233.464828 182.150823 
L 234.179211 181.710142 
L 234.244155 181.80181 
L 234.503931 181.548979 
L 234.893594 181.365918 
L 235.15337 181.263866 
L 235.283257 181.167093 
L 235.478089 181.096894 
L 238.335621 179.605664 
L 238.66034 179.455334 
L 240.15405 178.645007 
L 240.348881 178.54658 
L 240.478769 178.448847 
L 240.608657 178.44409 
L 242.362142 177.524362 
L 242.49203 177.503474 
L 242.686862 177.340494 
L 243.271357 177.041037 
L 243.466189 176.924805 
L 244.050684 176.631892 
L 244.310459 176.51518 
L 245.349562 175.941463 
L 245.934057 175.628408 
L 246.063944 175.604549 
L 247.038103 175.111107 
L 247.167991 175.076324 
L 247.362822 174.861767 
L 248.336981 174.43006 
L 248.531813 174.320545 
L 248.791588 174.167091 
L 248.98642 174.126825 
L 249.181252 173.948052 
L 249.441027 173.851534 
L 249.700803 173.741458 
L 249.960578 173.629718 
L 250.090466 173.490934 
L 250.739905 173.185729 
L 250.869793 173.167475 
L 251.389344 172.845201 
L 252.428446 172.285501 
L 252.558334 172.245174 
L 252.688222 172.292137 
L 252.883054 172.052404 
L 253.012941 172.076804 
L 253.207773 171.915417 
L 253.337661 171.858408 
L 253.922156 171.590733 
L 254.052044 171.528824 
L 254.246876 171.359831 
L 254.441707 171.351919 
L 254.636539 171.178046 
L 254.961258 170.959262 
L 255.15609 170.916067 
L 255.285978 170.846307 
L 255.48081 170.679856 
L 255.610697 170.733659 
L 255.870473 170.530801 
L 256.065305 170.425412 
L 256.32508 170.315264 
L 258.728005 169.073058 
L 258.922836 168.978245 
L 259.182612 168.798399 
L 259.3125 168.753019 
L 260.286658 168.248112 
L 260.936097 167.918426 
L 261.130929 167.810412 
L 261.455648 167.703797 
L 261.715424 167.49949 
L 261.845312 167.482022 
L 262.689582 167.015492 
L 263.274077 166.696321 
L 263.663741 166.489502 
L 263.793629 166.45231 
L 263.98846 166.321938 
L 264.183292 166.231383 
L 264.378124 166.131424 
L 264.572955 166.04727 
L 265.027563 165.797317 
L 267.170711 164.686881 
L 267.950038 164.263423 
L 271.262177 162.562771 
L 271.521952 162.406376 
L 271.911616 162.195913 
L 272.106447 162.101263 
L 272.625999 161.818652 
L 272.950718 161.61995 
L 273.210494 161.526076 
L 273.665101 161.247701 
L 275.028923 160.52645 
L 275.48353 160.283655 
L 275.938137 160.062155 
L 278.016342 158.951648 
L 278.276118 158.803369 
L 279.055445 158.417032 
L 279.704884 158.104333 
L 279.964659 157.902099 
L 280.094547 157.872441 
L 280.354323 157.723948 
L 280.549154 157.652974 
L 281.003761 157.354456 
L 281.198593 157.282726 
L 281.588257 157.097194 
L 282.172752 156.767957 
L 286.329161 154.598048 
L 286.588937 154.492781 
L 287.952759 153.768958 
L 288.212534 153.596647 
L 288.861973 153.271166 
L 290.355683 152.493112 
L 290.745346 152.278289 
L 290.940178 152.199443 
L 291.199953 152.059455 
L 291.329841 151.994371 
L 291.914336 151.674128 
L 303.79907 145.472211 
L 303.993901 145.333263 
L 304.253677 145.24235 
L 304.513453 145.080973 
L 305.357723 144.633911 
L 305.617499 144.543223 
L 306.266938 144.17565 
L 307.825591 143.347836 
L 308.280199 143.0977 
L 308.604918 142.957221 
L 309.059525 142.708442 
L 309.319301 142.604237 
L 310.163572 142.141167 
L 311.46245 141.435006 
L 312.241776 141.055703 
L 312.501552 140.91066 
L 313.086047 140.614093 
L 313.605598 140.3256 
L 317.047625 138.55233 
L 317.372344 138.38835 
L 317.891895 138.116999 
L 323.866734 135.014662 
L 323.996622 134.949446 
L 324.386285 134.736196 
L 325.360444 134.261385 
L 326.269658 133.763492 
L 326.529434 133.61358 
L 328.542695 132.583786 
L 328.737526 132.525287 
L 329.062246 132.341991 
L 329.516853 132.121757 
L 330.491012 131.598157 
L 330.685843 131.524467 
L 330.880675 131.408133 
L 331.140451 131.294331 
L 331.724946 130.946635 
L 332.049665 130.828137 
L 332.439329 130.567383 
L 334.387646 129.572107 
L 335.231916 129.12285 
L 335.491692 128.985945 
L 346.532154 123.35802 
L 346.79193 123.260134 
L 347.766088 122.748244 
L 347.96092 122.657505 
L 369.717126 111.762879 
L 369.976902 111.650639 
L 388.420969 102.699685 
L 388.745688 102.521718 
L 389.265239 102.315614 
L 389.78479 102.036576 
L 390.10951 101.890952 
L 391.668163 101.14135 
L 392.44749 100.78954 
L 398.487273 97.947089 
L 398.487273 97.947089 
" style="fill:none;stroke:#ff7f0e;stroke-linecap:square;stroke-width:1.5;"/>
   </g>
   <g id="patch_3">
    <path d="M 57.6 307.584 
L 57.6 41.472 
" style="fill:none;stroke:#000000;stroke-linecap:square;stroke-linejoin:miter;stroke-width:0.8;"/>
   </g>
   <g id="patch_4">
    <path d="M 414.72 307.584 
L 414.72 41.472 
" style="fill:none;stroke:#000000;stroke-linecap:square;stroke-linejoin:miter;stroke-width:0.8;"/>
   </g>
   <g id="patch_5">
    <path d="M 57.6 307.584 
L 414.72 307.584 
" style="fill:none;stroke:#000000;stroke-linecap:square;stroke-linejoin:miter;stroke-width:0.8;"/>
   </g>
   <g id="patch_6">
    <path d="M 57.6 41.472 
L 414.72 41.472 
" style="fill:none;stroke:#000000;stroke-linecap:square;stroke-linejoin:miter;stroke-width:0.8;"/>
   </g>
   <g id="text_17">
    <!-- Model loss -->
    <defs>
     <path d="M 9.8125 72.90625 
L 24.515625 72.90625 
L 43.109375 23.296875 
L 61.8125 72.90625 
L 76.515625 72.90625 
L 76.515625 0 
L 66.890625 0 
L 66.890625 64.015625 
L 48.09375 14.015625 
L 38.1875 14.015625 
L 19.390625 64.015625 
L 19.390625 0 
L 9.8125 0 
z
" id="DejaVuSans-77"/>
     <path d="M 45.40625 46.390625 
L 45.40625 75.984375 
L 54.390625 75.984375 
L 54.390625 0 
L 45.40625 0 
L 45.40625 8.203125 
Q 42.578125 3.328125 38.25 0.953125 
Q 33.9375 -1.421875 27.875 -1.421875 
Q 17.96875 -1.421875 11.734375 6.484375 
Q 5.515625 14.40625 5.515625 27.296875 
Q 5.515625 40.1875 11.734375 48.09375 
Q 17.96875 56 27.875 56 
Q 33.9375 56 38.25 53.625 
Q 42.578125 51.265625 45.40625 46.390625 
z
M 14.796875 27.296875 
Q 14.796875 17.390625 18.875 11.75 
Q 22.953125 6.109375 30.078125 6.109375 
Q 37.203125 6.109375 41.296875 11.75 
Q 45.40625 17.390625 45.40625 27.296875 
Q 45.40625 37.203125 41.296875 42.84375 
Q 37.203125 48.484375 30.078125 48.484375 
Q 22.953125 48.484375 18.875 42.84375 
Q 14.796875 37.203125 14.796875 27.296875 
z
" id="DejaVuSans-100"/>
     <path d="M 56.203125 29.59375 
L 56.203125 25.203125 
L 14.890625 25.203125 
Q 15.484375 15.921875 20.484375 11.0625 
Q 25.484375 6.203125 34.421875 6.203125 
Q 39.59375 6.203125 44.453125 7.46875 
Q 49.3125 8.734375 54.109375 11.28125 
L 54.109375 2.78125 
Q 49.265625 0.734375 44.1875 -0.34375 
Q 39.109375 -1.421875 33.890625 -1.421875 
Q 20.796875 -1.421875 13.15625 6.1875 
Q 5.515625 13.8125 5.515625 26.8125 
Q 5.515625 40.234375 12.765625 48.109375 
Q 20.015625 56 32.328125 56 
Q 43.359375 56 49.78125 48.890625 
Q 56.203125 41.796875 56.203125 29.59375 
z
M 47.21875 32.234375 
Q 47.125 39.59375 43.09375 43.984375 
Q 39.0625 48.390625 32.421875 48.390625 
Q 24.90625 48.390625 20.390625 44.140625 
Q 15.875 39.890625 15.1875 32.171875 
z
" id="DejaVuSans-101"/>
     <path d="M 9.421875 75.984375 
L 18.40625 75.984375 
L 18.40625 0 
L 9.421875 0 
z
" id="DejaVuSans-108"/>
     <path id="DejaVuSans-32"/>
    </defs>
    <g transform="translate(204.647812 35.472)scale(0.12 -0.12)">
     <use xlink:href="#DejaVuSans-77"/>
     <use x="86.279297" xlink:href="#DejaVuSans-111"/>
     <use x="147.460938" xlink:href="#DejaVuSans-100"/>
     <use x="210.9375" xlink:href="#DejaVuSans-101"/>
     <use x="272.460938" xlink:href="#DejaVuSans-108"/>
     <use x="300.244141" xlink:href="#DejaVuSans-32"/>
     <use x="332.03125" xlink:href="#DejaVuSans-108"/>
     <use x="359.814453" xlink:href="#DejaVuSans-111"/>
     <use x="420.996094" xlink:href="#DejaVuSans-115"/>
     <use x="473.095703" xlink:href="#DejaVuSans-115"/>
    </g>
   </g>
   <g id="legend_1">
    <g id="patch_7">
     <path d="M 350.279375 78.82825 
L 407.72 78.82825 
Q 409.72 78.82825 409.72 76.82825 
L 409.72 48.472 
Q 409.72 46.472 407.72 46.472 
L 350.279375 46.472 
Q 348.279375 46.472 348.279375 48.472 
L 348.279375 76.82825 
Q 348.279375 78.82825 350.279375 78.82825 
z
" style="fill:#ffffff;opacity:0.8;stroke:#cccccc;stroke-linejoin:miter;"/>
    </g>
    <g id="line2d_17">
     <path d="M 352.279375 54.570437 
L 372.279375 54.570437 
" style="fill:none;stroke:#1f77b4;stroke-linecap:square;stroke-width:1.5;"/>
    </g>
    <g id="line2d_18"/>
    <g id="text_18">
     <!-- Train -->
     <defs>
      <path d="M -0.296875 72.90625 
L 61.375 72.90625 
L 61.375 64.59375 
L 35.5 64.59375 
L 35.5 0 
L 25.59375 0 
L 25.59375 64.59375 
L -0.296875 64.59375 
z
" id="DejaVuSans-84"/>
      <path d="M 41.109375 46.296875 
Q 39.59375 47.171875 37.8125 47.578125 
Q 36.03125 48 33.890625 48 
Q 26.265625 48 22.1875 43.046875 
Q 18.109375 38.09375 18.109375 28.8125 
L 18.109375 0 
L 9.078125 0 
L 9.078125 54.6875 
L 18.109375 54.6875 
L 18.109375 46.1875 
Q 20.953125 51.171875 25.484375 53.578125 
Q 30.03125 56 36.53125 56 
Q 37.453125 56 38.578125 55.875 
Q 39.703125 55.765625 41.0625 55.515625 
z
" id="DejaVuSans-114"/>
      <path d="M 34.28125 27.484375 
Q 23.390625 27.484375 19.1875 25 
Q 14.984375 22.515625 14.984375 16.5 
Q 14.984375 11.71875 18.140625 8.90625 
Q 21.296875 6.109375 26.703125 6.109375 
Q 34.1875 6.109375 38.703125 11.40625 
Q 43.21875 16.703125 43.21875 25.484375 
L 43.21875 27.484375 
z
M 52.203125 31.203125 
L 52.203125 0 
L 43.21875 0 
L 43.21875 8.296875 
Q 40.140625 3.328125 35.546875 0.953125 
Q 30.953125 -1.421875 24.3125 -1.421875 
Q 15.921875 -1.421875 10.953125 3.296875 
Q 6 8.015625 6 15.921875 
Q 6 25.140625 12.171875 29.828125 
Q 18.359375 34.515625 30.609375 34.515625 
L 43.21875 34.515625 
L 43.21875 35.40625 
Q 43.21875 41.609375 39.140625 45 
Q 35.0625 48.390625 27.6875 48.390625 
Q 23 48.390625 18.546875 47.265625 
Q 14.109375 46.140625 10.015625 43.890625 
L 10.015625 52.203125 
Q 14.9375 54.109375 19.578125 55.046875 
Q 24.21875 56 28.609375 56 
Q 40.484375 56 46.34375 49.84375 
Q 52.203125 43.703125 52.203125 31.203125 
z
" id="DejaVuSans-97"/>
      <path d="M 9.421875 54.6875 
L 18.40625 54.6875 
L 18.40625 0 
L 9.421875 0 
z
M 9.421875 75.984375 
L 18.40625 75.984375 
L 18.40625 64.59375 
L 9.421875 64.59375 
z
" id="DejaVuSans-105"/>
      <path d="M 54.890625 33.015625 
L 54.890625 0 
L 45.90625 0 
L 45.90625 32.71875 
Q 45.90625 40.484375 42.875 44.328125 
Q 39.84375 48.1875 33.796875 48.1875 
Q 26.515625 48.1875 22.3125 43.546875 
Q 18.109375 38.921875 18.109375 30.90625 
L 18.109375 0 
L 9.078125 0 
L 9.078125 54.6875 
L 18.109375 54.6875 
L 18.109375 46.1875 
Q 21.34375 51.125 25.703125 53.5625 
Q 30.078125 56 35.796875 56 
Q 45.21875 56 50.046875 50.171875 
Q 54.890625 44.34375 54.890625 33.015625 
z
" id="DejaVuSans-110"/>
     </defs>
     <g transform="translate(380.279375 58.070437)scale(0.1 -0.1)">
      <use xlink:href="#DejaVuSans-84"/>
      <use x="60.865234" xlink:href="#DejaVuSans-114"/>
      <use x="101.978516" xlink:href="#DejaVuSans-97"/>
      <use x="163.257812" xlink:href="#DejaVuSans-105"/>
      <use x="191.041016" xlink:href="#DejaVuSans-110"/>
     </g>
    </g>
    <g id="line2d_19">
     <path d="M 352.279375 69.248562 
L 372.279375 69.248562 
" style="fill:none;stroke:#ff7f0e;stroke-linecap:square;stroke-width:1.5;"/>
    </g>
    <g id="line2d_20"/>
    <g id="text_19">
     <!-- Test -->
     <defs>
      <path d="M 18.3125 70.21875 
L 18.3125 54.6875 
L 36.8125 54.6875 
L 36.8125 47.703125 
L 18.3125 47.703125 
L 18.3125 18.015625 
Q 18.3125 11.328125 20.140625 9.421875 
Q 21.96875 7.515625 27.59375 7.515625 
L 36.8125 7.515625 
L 36.8125 0 
L 27.59375 0 
Q 17.1875 0 13.234375 3.875 
Q 9.28125 7.765625 9.28125 18.015625 
L 9.28125 47.703125 
L 2.6875 47.703125 
L 2.6875 54.6875 
L 9.28125 54.6875 
L 9.28125 70.21875 
z
" id="DejaVuSans-116"/>
     </defs>
     <g transform="translate(380.279375 72.748562)scale(0.1 -0.1)">
      <use xlink:href="#DejaVuSans-84"/>
      <use x="60.818359" xlink:href="#DejaVuSans-101"/>
      <use x="122.341797" xlink:href="#DejaVuSans-115"/>
      <use x="174.441406" xlink:href="#DejaVuSans-116"/>
     </g>
    </g>
   </g>
  </g>
 </g>
 <defs>
  <clipPath id="p3426affa4f">
   <rect height="266.112" width="357.12" x="57.6" y="41.472"/>
  </clipPath>
 </defs>
</svg>
