<?xml version="1.0" encoding="utf-8" standalone="no"?>
<!DOCTYPE svg PUBLIC "-//W3C//DTD SVG 1.1//EN"
  "http://www.w3.org/Graphics/SVG/1.1/DTD/svg11.dtd">
<!-- Created with matplotlib (https://matplotlib.org/) -->
<svg height="345.6pt" version="1.1" viewBox="0 0 460.8 345.6" width="460.8pt" xmlns="http://www.w3.org/2000/svg" xmlns:xlink="http://www.w3.org/1999/xlink">
 <defs>
  <style type="text/css">
*{stroke-linecap:butt;stroke-linejoin:round;}
  </style>
 </defs>
 <g id="figure_1">
  <g id="patch_1">
   <path d="M 0 345.6 
L 460.8 345.6 
L 460.8 0 
L 0 0 
z
" style="fill:#ffffff;"/>
  </g>
  <g id="axes_1">
   <g id="patch_2">
    <path d="M 57.6 307.584 
L 414.72 307.584 
L 414.72 41.472 
L 57.6 41.472 
z
" style="fill:#ffffff;"/>
   </g>
   <g id="matplotlib.axis_1">
    <g id="xtick_1">
     <g id="line2d_1">
      <defs>
       <path d="M 0 0 
L 0 3.5 
" id="m208bfe3c8f" style="stroke:#000000;stroke-width:0.8;"/>
      </defs>
      <g>
       <use style="stroke:#000000;stroke-width:0.8;" x="73.832727" xlink:href="#m208bfe3c8f" y="307.584"/>
      </g>
     </g>
     <g id="text_1">
      <!-- 0 -->
      <defs>
       <path d="M 31.78125 66.40625 
Q 24.171875 66.40625 20.328125 58.90625 
Q 16.5 51.421875 16.5 36.375 
Q 16.5 21.390625 20.328125 13.890625 
Q 24.171875 6.390625 31.78125 6.390625 
Q 39.453125 6.390625 43.28125 13.890625 
Q 47.125 21.390625 47.125 36.375 
Q 47.125 51.421875 43.28125 58.90625 
Q 39.453125 66.40625 31.78125 66.40625 
z
M 31.78125 74.21875 
Q 44.046875 74.21875 50.515625 64.515625 
Q 56.984375 54.828125 56.984375 36.375 
Q 56.984375 17.96875 50.515625 8.265625 
Q 44.046875 -1.421875 31.78125 -1.421875 
Q 19.53125 -1.421875 13.0625 8.265625 
Q 6.59375 17.96875 6.59375 36.375 
Q 6.59375 54.828125 13.0625 64.515625 
Q 19.53125 74.21875 31.78125 74.21875 
z
" id="DejaVuSans-48"/>
      </defs>
      <g transform="translate(70.651477 322.182437)scale(0.1 -0.1)">
       <use xlink:href="#DejaVuSans-48"/>
      </g>
     </g>
    </g>
    <g id="xtick_2">
     <g id="line2d_2">
      <g>
       <use style="stroke:#000000;stroke-width:0.8;" x="138.893758" xlink:href="#m208bfe3c8f" y="307.584"/>
      </g>
     </g>
     <g id="text_2">
      <!-- 100 -->
      <defs>
       <path d="M 12.40625 8.296875 
L 28.515625 8.296875 
L 28.515625 63.921875 
L 10.984375 60.40625 
L 10.984375 69.390625 
L 28.421875 72.90625 
L 38.28125 72.90625 
L 38.28125 8.296875 
L 54.390625 8.296875 
L 54.390625 0 
L 12.40625 0 
z
" id="DejaVuSans-49"/>
      </defs>
      <g transform="translate(129.350008 322.182437)scale(0.1 -0.1)">
       <use xlink:href="#DejaVuSans-49"/>
       <use x="63.623047" xlink:href="#DejaVuSans-48"/>
       <use x="127.246094" xlink:href="#DejaVuSans-48"/>
      </g>
     </g>
    </g>
    <g id="xtick_3">
     <g id="line2d_3">
      <g>
       <use style="stroke:#000000;stroke-width:0.8;" x="203.95479" xlink:href="#m208bfe3c8f" y="307.584"/>
      </g>
     </g>
     <g id="text_3">
      <!-- 200 -->
      <defs>
       <path d="M 19.1875 8.296875 
L 53.609375 8.296875 
L 53.609375 0 
L 7.328125 0 
L 7.328125 8.296875 
Q 12.9375 14.109375 22.625 23.890625 
Q 32.328125 33.6875 34.8125 36.53125 
Q 39.546875 41.84375 41.421875 45.53125 
Q 43.3125 49.21875 43.3125 52.78125 
Q 43.3125 58.59375 39.234375 62.25 
Q 35.15625 65.921875 28.609375 65.921875 
Q 23.96875 65.921875 18.8125 64.3125 
Q 13.671875 62.703125 7.8125 59.421875 
L 7.8125 69.390625 
Q 13.765625 71.78125 18.9375 73 
Q 24.125 74.21875 28.421875 74.21875 
Q 39.75 74.21875 46.484375 68.546875 
Q 53.21875 62.890625 53.21875 53.421875 
Q 53.21875 48.921875 51.53125 44.890625 
Q 49.859375 40.875 45.40625 35.40625 
Q 44.1875 33.984375 37.640625 27.21875 
Q 31.109375 20.453125 19.1875 8.296875 
z
" id="DejaVuSans-50"/>
      </defs>
      <g transform="translate(194.41104 322.182437)scale(0.1 -0.1)">
       <use xlink:href="#DejaVuSans-50"/>
       <use x="63.623047" xlink:href="#DejaVuSans-48"/>
       <use x="127.246094" xlink:href="#DejaVuSans-48"/>
      </g>
     </g>
    </g>
    <g id="xtick_4">
     <g id="line2d_4">
      <g>
       <use style="stroke:#000000;stroke-width:0.8;" x="269.015821" xlink:href="#m208bfe3c8f" y="307.584"/>
      </g>
     </g>
     <g id="text_4">
      <!-- 300 -->
      <defs>
       <path d="M 40.578125 39.3125 
Q 47.65625 37.796875 51.625 33 
Q 55.609375 28.21875 55.609375 21.1875 
Q 55.609375 10.40625 48.1875 4.484375 
Q 40.765625 -1.421875 27.09375 -1.421875 
Q 22.515625 -1.421875 17.65625 -0.515625 
Q 12.796875 0.390625 7.625 2.203125 
L 7.625 11.71875 
Q 11.71875 9.328125 16.59375 8.109375 
Q 21.484375 6.890625 26.8125 6.890625 
Q 36.078125 6.890625 40.9375 10.546875 
Q 45.796875 14.203125 45.796875 21.1875 
Q 45.796875 27.640625 41.28125 31.265625 
Q 36.765625 34.90625 28.71875 34.90625 
L 20.21875 34.90625 
L 20.21875 43.015625 
L 29.109375 43.015625 
Q 36.375 43.015625 40.234375 45.921875 
Q 44.09375 48.828125 44.09375 54.296875 
Q 44.09375 59.90625 40.109375 62.90625 
Q 36.140625 65.921875 28.71875 65.921875 
Q 24.65625 65.921875 20.015625 65.03125 
Q 15.375 64.15625 9.8125 62.3125 
L 9.8125 71.09375 
Q 15.4375 72.65625 20.34375 73.4375 
Q 25.25 74.21875 29.59375 74.21875 
Q 40.828125 74.21875 47.359375 69.109375 
Q 53.90625 64.015625 53.90625 55.328125 
Q 53.90625 49.265625 50.4375 45.09375 
Q 46.96875 40.921875 40.578125 39.3125 
z
" id="DejaVuSans-51"/>
      </defs>
      <g transform="translate(259.472071 322.182437)scale(0.1 -0.1)">
       <use xlink:href="#DejaVuSans-51"/>
       <use x="63.623047" xlink:href="#DejaVuSans-48"/>
       <use x="127.246094" xlink:href="#DejaVuSans-48"/>
      </g>
     </g>
    </g>
    <g id="xtick_5">
     <g id="line2d_5">
      <g>
       <use style="stroke:#000000;stroke-width:0.8;" x="334.076852" xlink:href="#m208bfe3c8f" y="307.584"/>
      </g>
     </g>
     <g id="text_5">
      <!-- 400 -->
      <defs>
       <path d="M 37.796875 64.3125 
L 12.890625 25.390625 
L 37.796875 25.390625 
z
M 35.203125 72.90625 
L 47.609375 72.90625 
L 47.609375 25.390625 
L 58.015625 25.390625 
L 58.015625 17.1875 
L 47.609375 17.1875 
L 47.609375 0 
L 37.796875 0 
L 37.796875 17.1875 
L 4.890625 17.1875 
L 4.890625 26.703125 
z
" id="DejaVuSans-52"/>
      </defs>
      <g transform="translate(324.533102 322.182437)scale(0.1 -0.1)">
       <use xlink:href="#DejaVuSans-52"/>
       <use x="63.623047" xlink:href="#DejaVuSans-48"/>
       <use x="127.246094" xlink:href="#DejaVuSans-48"/>
      </g>
     </g>
    </g>
    <g id="xtick_6">
     <g id="line2d_6">
      <g>
       <use style="stroke:#000000;stroke-width:0.8;" x="399.137883" xlink:href="#m208bfe3c8f" y="307.584"/>
      </g>
     </g>
     <g id="text_6">
      <!-- 500 -->
      <defs>
       <path d="M 10.796875 72.90625 
L 49.515625 72.90625 
L 49.515625 64.59375 
L 19.828125 64.59375 
L 19.828125 46.734375 
Q 21.96875 47.46875 24.109375 47.828125 
Q 26.265625 48.1875 28.421875 48.1875 
Q 40.625 48.1875 47.75 41.5 
Q 54.890625 34.8125 54.890625 23.390625 
Q 54.890625 11.625 47.5625 5.09375 
Q 40.234375 -1.421875 26.90625 -1.421875 
Q 22.3125 -1.421875 17.546875 -0.640625 
Q 12.796875 0.140625 7.71875 1.703125 
L 7.71875 11.625 
Q 12.109375 9.234375 16.796875 8.0625 
Q 21.484375 6.890625 26.703125 6.890625 
Q 35.15625 6.890625 40.078125 11.328125 
Q 45.015625 15.765625 45.015625 23.390625 
Q 45.015625 31 40.078125 35.4375 
Q 35.15625 39.890625 26.703125 39.890625 
Q 22.75 39.890625 18.8125 39.015625 
Q 14.890625 38.140625 10.796875 36.28125 
z
" id="DejaVuSans-53"/>
      </defs>
      <g transform="translate(389.594133 322.182437)scale(0.1 -0.1)">
       <use xlink:href="#DejaVuSans-53"/>
       <use x="63.623047" xlink:href="#DejaVuSans-48"/>
       <use x="127.246094" xlink:href="#DejaVuSans-48"/>
      </g>
     </g>
    </g>
    <g id="text_7">
     <!-- Epoch -->
     <defs>
      <path d="M 9.8125 72.90625 
L 55.90625 72.90625 
L 55.90625 64.59375 
L 19.671875 64.59375 
L 19.671875 43.015625 
L 54.390625 43.015625 
L 54.390625 34.71875 
L 19.671875 34.71875 
L 19.671875 8.296875 
L 56.78125 8.296875 
L 56.78125 0 
L 9.8125 0 
z
" id="DejaVuSans-69"/>
      <path d="M 18.109375 8.203125 
L 18.109375 -20.796875 
L 9.078125 -20.796875 
L 9.078125 54.6875 
L 18.109375 54.6875 
L 18.109375 46.390625 
Q 20.953125 51.265625 25.265625 53.625 
Q 29.59375 56 35.59375 56 
Q 45.5625 56 51.78125 48.09375 
Q 58.015625 40.1875 58.015625 27.296875 
Q 58.015625 14.40625 51.78125 6.484375 
Q 45.5625 -1.421875 35.59375 -1.421875 
Q 29.59375 -1.421875 25.265625 0.953125 
Q 20.953125 3.328125 18.109375 8.203125 
z
M 48.6875 27.296875 
Q 48.6875 37.203125 44.609375 42.84375 
Q 40.53125 48.484375 33.40625 48.484375 
Q 26.265625 48.484375 22.1875 42.84375 
Q 18.109375 37.203125 18.109375 27.296875 
Q 18.109375 17.390625 22.1875 11.75 
Q 26.265625 6.109375 33.40625 6.109375 
Q 40.53125 6.109375 44.609375 11.75 
Q 48.6875 17.390625 48.6875 27.296875 
z
" id="DejaVuSans-112"/>
      <path d="M 30.609375 48.390625 
Q 23.390625 48.390625 19.1875 42.75 
Q 14.984375 37.109375 14.984375 27.296875 
Q 14.984375 17.484375 19.15625 11.84375 
Q 23.34375 6.203125 30.609375 6.203125 
Q 37.796875 6.203125 41.984375 11.859375 
Q 46.1875 17.53125 46.1875 27.296875 
Q 46.1875 37.015625 41.984375 42.703125 
Q 37.796875 48.390625 30.609375 48.390625 
z
M 30.609375 56 
Q 42.328125 56 49.015625 48.375 
Q 55.71875 40.765625 55.71875 27.296875 
Q 55.71875 13.875 49.015625 6.21875 
Q 42.328125 -1.421875 30.609375 -1.421875 
Q 18.84375 -1.421875 12.171875 6.21875 
Q 5.515625 13.875 5.515625 27.296875 
Q 5.515625 40.765625 12.171875 48.375 
Q 18.84375 56 30.609375 56 
z
" id="DejaVuSans-111"/>
      <path d="M 48.78125 52.59375 
L 48.78125 44.1875 
Q 44.96875 46.296875 41.140625 47.34375 
Q 37.3125 48.390625 33.40625 48.390625 
Q 24.65625 48.390625 19.8125 42.84375 
Q 14.984375 37.3125 14.984375 27.296875 
Q 14.984375 17.28125 19.8125 11.734375 
Q 24.65625 6.203125 33.40625 6.203125 
Q 37.3125 6.203125 41.140625 7.25 
Q 44.96875 8.296875 48.78125 10.40625 
L 48.78125 2.09375 
Q 45.015625 0.34375 40.984375 -0.53125 
Q 36.96875 -1.421875 32.421875 -1.421875 
Q 20.0625 -1.421875 12.78125 6.34375 
Q 5.515625 14.109375 5.515625 27.296875 
Q 5.515625 40.671875 12.859375 48.328125 
Q 20.21875 56 33.015625 56 
Q 37.15625 56 41.109375 55.140625 
Q 45.0625 54.296875 48.78125 52.59375 
z
" id="DejaVuSans-99"/>
      <path d="M 54.890625 33.015625 
L 54.890625 0 
L 45.90625 0 
L 45.90625 32.71875 
Q 45.90625 40.484375 42.875 44.328125 
Q 39.84375 48.1875 33.796875 48.1875 
Q 26.515625 48.1875 22.3125 43.546875 
Q 18.109375 38.921875 18.109375 30.90625 
L 18.109375 0 
L 9.078125 0 
L 9.078125 75.984375 
L 18.109375 75.984375 
L 18.109375 46.1875 
Q 21.34375 51.125 25.703125 53.5625 
Q 30.078125 56 35.796875 56 
Q 45.21875 56 50.046875 50.171875 
Q 54.890625 44.34375 54.890625 33.015625 
z
" id="DejaVuSans-104"/>
     </defs>
     <g transform="translate(220.849063 335.860562)scale(0.1 -0.1)">
      <use xlink:href="#DejaVuSans-69"/>
      <use x="63.183594" xlink:href="#DejaVuSans-112"/>
      <use x="126.660156" xlink:href="#DejaVuSans-111"/>
      <use x="187.841797" xlink:href="#DejaVuSans-99"/>
      <use x="242.822266" xlink:href="#DejaVuSans-104"/>
     </g>
    </g>
   </g>
   <g id="matplotlib.axis_2">
    <g id="ytick_1">
     <g id="line2d_7">
      <defs>
       <path d="M 0 0 
L -3.5 0 
" id="mf66542abd9" style="stroke:#000000;stroke-width:0.8;"/>
      </defs>
      <g>
       <use style="stroke:#000000;stroke-width:0.8;" x="57.6" xlink:href="#mf66542abd9" y="276.8788"/>
      </g>
     </g>
     <g id="text_8">
      <!-- 0.1 -->
      <defs>
       <path d="M 10.6875 12.40625 
L 21 12.40625 
L 21 0 
L 10.6875 0 
z
" id="DejaVuSans-46"/>
      </defs>
      <g transform="translate(34.696875 280.678019)scale(0.1 -0.1)">
       <use xlink:href="#DejaVuSans-48"/>
       <use x="63.623047" xlink:href="#DejaVuSans-46"/>
       <use x="95.410156" xlink:href="#DejaVuSans-49"/>
      </g>
     </g>
    </g>
    <g id="ytick_2">
     <g id="line2d_8">
      <g>
       <use style="stroke:#000000;stroke-width:0.8;" x="57.6" xlink:href="#mf66542abd9" y="242.290915"/>
      </g>
     </g>
     <g id="text_9">
      <!-- 0.2 -->
      <g transform="translate(34.696875 246.090134)scale(0.1 -0.1)">
       <use xlink:href="#DejaVuSans-48"/>
       <use x="63.623047" xlink:href="#DejaVuSans-46"/>
       <use x="95.410156" xlink:href="#DejaVuSans-50"/>
      </g>
     </g>
    </g>
    <g id="ytick_3">
     <g id="line2d_9">
      <g>
       <use style="stroke:#000000;stroke-width:0.8;" x="57.6" xlink:href="#mf66542abd9" y="207.703031"/>
      </g>
     </g>
     <g id="text_10">
      <!-- 0.3 -->
      <g transform="translate(34.696875 211.502249)scale(0.1 -0.1)">
       <use xlink:href="#DejaVuSans-48"/>
       <use x="63.623047" xlink:href="#DejaVuSans-46"/>
       <use x="95.410156" xlink:href="#DejaVuSans-51"/>
      </g>
     </g>
    </g>
    <g id="ytick_4">
     <g id="line2d_10">
      <g>
       <use style="stroke:#000000;stroke-width:0.8;" x="57.6" xlink:href="#mf66542abd9" y="173.115146"/>
      </g>
     </g>
     <g id="text_11">
      <!-- 0.4 -->
      <g transform="translate(34.696875 176.914365)scale(0.1 -0.1)">
       <use xlink:href="#DejaVuSans-48"/>
       <use x="63.623047" xlink:href="#DejaVuSans-46"/>
       <use x="95.410156" xlink:href="#DejaVuSans-52"/>
      </g>
     </g>
    </g>
    <g id="ytick_5">
     <g id="line2d_11">
      <g>
       <use style="stroke:#000000;stroke-width:0.8;" x="57.6" xlink:href="#mf66542abd9" y="138.527261"/>
      </g>
     </g>
     <g id="text_12">
      <!-- 0.5 -->
      <g transform="translate(34.696875 142.32648)scale(0.1 -0.1)">
       <use xlink:href="#DejaVuSans-48"/>
       <use x="63.623047" xlink:href="#DejaVuSans-46"/>
       <use x="95.410156" xlink:href="#DejaVuSans-53"/>
      </g>
     </g>
    </g>
    <g id="ytick_6">
     <g id="line2d_12">
      <g>
       <use style="stroke:#000000;stroke-width:0.8;" x="57.6" xlink:href="#mf66542abd9" y="103.939376"/>
      </g>
     </g>
     <g id="text_13">
      <!-- 0.6 -->
      <defs>
       <path d="M 33.015625 40.375 
Q 26.375 40.375 22.484375 35.828125 
Q 18.609375 31.296875 18.609375 23.390625 
Q 18.609375 15.53125 22.484375 10.953125 
Q 26.375 6.390625 33.015625 6.390625 
Q 39.65625 6.390625 43.53125 10.953125 
Q 47.40625 15.53125 47.40625 23.390625 
Q 47.40625 31.296875 43.53125 35.828125 
Q 39.65625 40.375 33.015625 40.375 
z
M 52.59375 71.296875 
L 52.59375 62.3125 
Q 48.875 64.0625 45.09375 64.984375 
Q 41.3125 65.921875 37.59375 65.921875 
Q 27.828125 65.921875 22.671875 59.328125 
Q 17.53125 52.734375 16.796875 39.40625 
Q 19.671875 43.65625 24.015625 45.921875 
Q 28.375 48.1875 33.59375 48.1875 
Q 44.578125 48.1875 50.953125 41.515625 
Q 57.328125 34.859375 57.328125 23.390625 
Q 57.328125 12.15625 50.6875 5.359375 
Q 44.046875 -1.421875 33.015625 -1.421875 
Q 20.359375 -1.421875 13.671875 8.265625 
Q 6.984375 17.96875 6.984375 36.375 
Q 6.984375 53.65625 15.1875 63.9375 
Q 23.390625 74.21875 37.203125 74.21875 
Q 40.921875 74.21875 44.703125 73.484375 
Q 48.484375 72.75 52.59375 71.296875 
z
" id="DejaVuSans-54"/>
      </defs>
      <g transform="translate(34.696875 107.738595)scale(0.1 -0.1)">
       <use xlink:href="#DejaVuSans-48"/>
       <use x="63.623047" xlink:href="#DejaVuSans-46"/>
       <use x="95.410156" xlink:href="#DejaVuSans-54"/>
      </g>
     </g>
    </g>
    <g id="ytick_7">
     <g id="line2d_13">
      <g>
       <use style="stroke:#000000;stroke-width:0.8;" x="57.6" xlink:href="#mf66542abd9" y="69.351492"/>
      </g>
     </g>
     <g id="text_14">
      <!-- 0.7 -->
      <defs>
       <path d="M 8.203125 72.90625 
L 55.078125 72.90625 
L 55.078125 68.703125 
L 28.609375 0 
L 18.3125 0 
L 43.21875 64.59375 
L 8.203125 64.59375 
z
" id="DejaVuSans-55"/>
      </defs>
      <g transform="translate(34.696875 73.15071)scale(0.1 -0.1)">
       <use xlink:href="#DejaVuSans-48"/>
       <use x="63.623047" xlink:href="#DejaVuSans-46"/>
       <use x="95.410156" xlink:href="#DejaVuSans-55"/>
      </g>
     </g>
    </g>
    <g id="text_15">
     <!-- Loss -->
     <defs>
      <path d="M 9.8125 72.90625 
L 19.671875 72.90625 
L 19.671875 8.296875 
L 55.171875 8.296875 
L 55.171875 0 
L 9.8125 0 
z
" id="DejaVuSans-76"/>
      <path d="M 44.28125 53.078125 
L 44.28125 44.578125 
Q 40.484375 46.53125 36.375 47.5 
Q 32.28125 48.484375 27.875 48.484375 
Q 21.1875 48.484375 17.84375 46.4375 
Q 14.5 44.390625 14.5 40.28125 
Q 14.5 37.15625 16.890625 35.375 
Q 19.28125 33.59375 26.515625 31.984375 
L 29.59375 31.296875 
Q 39.15625 29.25 43.1875 25.515625 
Q 47.21875 21.78125 47.21875 15.09375 
Q 47.21875 7.46875 41.1875 3.015625 
Q 35.15625 -1.421875 24.609375 -1.421875 
Q 20.21875 -1.421875 15.453125 -0.5625 
Q 10.6875 0.296875 5.421875 2 
L 5.421875 11.28125 
Q 10.40625 8.6875 15.234375 7.390625 
Q 20.0625 6.109375 24.8125 6.109375 
Q 31.15625 6.109375 34.5625 8.28125 
Q 37.984375 10.453125 37.984375 14.40625 
Q 37.984375 18.0625 35.515625 20.015625 
Q 33.0625 21.96875 24.703125 23.78125 
L 21.578125 24.515625 
Q 13.234375 26.265625 9.515625 29.90625 
Q 5.8125 33.546875 5.8125 39.890625 
Q 5.8125 47.609375 11.28125 51.796875 
Q 16.75 56 26.8125 56 
Q 31.78125 56 36.171875 55.265625 
Q 40.578125 54.546875 44.28125 53.078125 
z
" id="DejaVuSans-115"/>
     </defs>
     <g transform="translate(28.617188 185.581906)rotate(-90)scale(0.1 -0.1)">
      <use xlink:href="#DejaVuSans-76"/>
      <use x="55.697266" xlink:href="#DejaVuSans-111"/>
      <use x="116.878906" xlink:href="#DejaVuSans-115"/>
      <use x="168.978516" xlink:href="#DejaVuSans-115"/>
     </g>
    </g>
   </g>
   <g id="line2d_14">
    <path clip-path="url(#p08fb727080)" d="M 73.832727 79.008921 
L 74.483338 82.020485 
L 75.133948 83.502558 
L 75.784558 87.191938 
L 76.435169 89.30089 
L 77.736389 92.515193 
L 78.386999 94.57088 
L 79.03761 93.865141 
L 79.68822 97.445008 
L 80.33883 99.694377 
L 80.989441 100.800196 
L 81.640051 101.613392 
L 82.941272 106.248416 
L 83.591882 108.378497 
L 84.242492 109.636843 
L 84.893103 111.352302 
L 86.194323 115.674318 
L 86.844934 116.874085 
L 90.097985 127.141229 
L 91.399206 132.558723 
L 92.700426 136.808001 
L 93.351037 138.632733 
L 94.001647 139.717907 
L 94.652257 141.870486 
L 95.302868 144.959363 
L 96.604088 149.715863 
L 97.254698 151.516013 
L 97.905309 146.464488 
L 98.555919 152.43676 
L 99.85714 158.353596 
L 100.50775 161.430356 
L 101.15836 161.218067 
L 101.808971 165.235143 
L 102.459581 167.139006 
L 103.110191 168.489582 
L 103.760802 170.748534 
L 104.411412 172.545031 
L 105.062022 173.716101 
L 105.712633 175.664258 
L 106.363243 177.007079 
L 107.664463 180.090878 
L 108.315074 181.213193 
L 110.266905 185.828377 
L 111.568125 188.374511 
L 112.869346 189.929218 
L 113.519956 191.173655 
L 114.170567 191.533625 
L 114.821177 191.547899 
L 115.471787 194.175172 
L 116.122398 195.298897 
L 116.773008 196.116856 
L 117.423618 197.863927 
L 118.074228 198.463899 
L 118.724839 200.556306 
L 119.375449 199.941244 
L 120.026059 201.744353 
L 121.32728 204.175236 
L 121.97789 204.305125 
L 122.628501 206.428351 
L 123.279111 206.837551 
L 123.929721 208.18606 
L 124.580332 208.899727 
L 125.230942 209.90443 
L 125.881552 211.143785 
L 126.532163 211.619364 
L 129.785214 215.708011 
L 134.339486 220.705931 
L 134.990097 221.103289 
L 135.640707 221.837475 
L 136.291317 222.16354 
L 137.592538 223.863731 
L 138.893758 225.275841 
L 144.098641 229.91882 
L 146.050472 231.409637 
L 147.351692 232.626534 
L 148.002303 233.106792 
L 148.652913 233.26782 
L 151.255354 235.621021 
L 151.905965 235.958437 
L 152.556575 235.623796 
L 153.207185 236.316103 
L 153.857796 236.338982 
L 154.508406 237.29959 
L 155.159016 237.972964 
L 155.809627 238.249694 
L 156.460237 237.316162 
L 157.110847 239.397508 
L 157.761457 239.671653 
L 159.062678 241.043276 
L 159.713288 241.529129 
L 160.363899 241.638848 
L 161.014509 242.283794 
L 165.568781 245.101573 
L 176.629156 250.951265 
L 178.580987 251.895163 
L 179.882208 252.547257 
L 182.484649 253.676689 
L 183.13526 253.812997 
L 185.087091 254.866577 
L 185.737701 255.072302 
L 186.388311 255.479656 
L 188.340142 256.275162 
L 188.990752 256.643278 
L 189.641363 256.834274 
L 190.942583 257.462728 
L 191.593194 257.637698 
L 192.894414 258.242584 
L 194.846245 258.88048 
L 195.496856 258.933535 
L 196.798076 259.767157 
L 197.448686 259.843079 
L 198.099297 260.065922 
L 198.749907 260.471877 
L 202.002959 261.700644 
L 202.653569 261.998563 
L 203.304179 262.163533 
L 204.6054 262.661963 
L 206.557231 263.374349 
L 207.858451 263.743432 
L 208.509062 263.817306 
L 209.159672 263.685567 
L 209.810282 264.009833 
L 210.460893 263.168411 
L 211.762113 263.850473 
L 212.412724 264.6861 
L 213.063334 265.268 
L 214.364555 265.876502 
L 215.665775 266.329948 
L 222.822489 268.54612 
L 226.72615 269.583254 
L 227.376761 269.87174 
L 228.677981 270.212026 
L 235.184085 271.74786 
L 235.834695 271.811952 
L 236.485305 271.644086 
L 237.135915 272.143048 
L 237.786526 271.000108 
L 238.437136 268.602545 
L 239.087746 261.130159 
L 239.738357 262.877152 
L 240.388967 251.567588 
L 241.039577 267.112121 
L 241.690188 254.383522 
L 242.340798 267.402657 
L 242.991408 260.21093 
L 243.642019 250.646865 
L 244.292629 260.631253 
L 244.943239 263.332266 
L 245.59385 269.722784 
L 246.24446 256.03845 
L 246.89507 267.945852 
L 247.54568 257.965037 
L 248.196291 268.951334 
L 248.846901 266.691756 
L 249.497511 259.320465 
L 250.148122 272.0458 
L 250.798732 272.20194 
L 251.449342 274.104174 
L 252.099953 273.58143 
L 252.750563 274.189327 
L 253.401173 274.485875 
L 254.702394 275.485518 
L 256.003615 276.191496 
L 257.304835 276.558899 
L 259.256666 277.051363 
L 263.810938 278.120037 
L 268.36521 279.061493 
L 278.124365 280.932688 
L 300.895726 284.746786 
L 321.064646 287.607843 
L 339.932345 289.92636 
L 357.498823 291.823953 
L 383.523236 294.25699 
L 398.487273 295.488 
L 398.487273 295.488 
" style="fill:none;stroke:#1f77b4;stroke-linecap:square;stroke-width:1.5;"/>
   </g>
   <g id="line2d_15">
    <path clip-path="url(#p08fb727080)" d="M 73.832727 53.568 
L 75.133948 59.839754 
L 75.784558 60.860493 
L 76.435169 63.278707 
L 77.085779 63.996164 
L 77.736389 67.582067 
L 78.386999 67.391596 
L 79.03761 71.193678 
L 79.68822 73.311414 
L 80.33883 70.663456 
L 80.989441 78.489387 
L 81.640051 79.528598 
L 82.290661 79.193835 
L 82.941272 78.065955 
L 83.591882 81.785883 
L 84.242492 81.024184 
L 84.893103 83.18309 
L 85.543713 86.480267 
L 86.194323 85.434542 
L 86.844934 87.597117 
L 87.495544 93.013329 
L 88.146154 94.04052 
L 88.796764 96.676088 
L 89.447375 97.39171 
L 90.097985 99.04973 
L 90.748595 100.322561 
L 91.399206 100.816892 
L 92.049816 103.615161 
L 92.700426 104.886116 
L 93.351037 110.508879 
L 94.001647 106.981422 
L 95.302868 113.538068 
L 95.953478 114.323537 
L 96.604088 115.989206 
L 97.254698 115.778593 
L 97.905309 101.586363 
L 98.555919 125.529707 
L 99.85714 118.562225 
L 100.50775 127.36288 
L 101.15836 126.874055 
L 101.808971 122.327323 
L 102.459581 131.111567 
L 103.110191 132.298842 
L 103.760802 131.433218 
L 104.411412 133.439916 
L 105.062022 133.588557 
L 105.712633 134.903527 
L 106.363243 134.752825 
L 107.013853 133.763649 
L 107.664463 137.584616 
L 108.965684 135.420515 
L 109.616294 138.238184 
L 110.266905 138.194663 
L 110.917515 138.397236 
L 111.568125 138.300671 
L 112.218736 144.151776 
L 112.869346 138.790692 
L 113.519956 148.584749 
L 114.170567 141.157005 
L 114.821177 141.918931 
L 115.471787 146.417401 
L 116.122398 145.574166 
L 116.773008 153.103722 
L 117.423618 150.732584 
L 118.074228 158.089296 
L 118.724839 151.663891 
L 119.375449 152.94805 
L 120.026059 157.975558 
L 120.67667 153.273567 
L 121.32728 162.364588 
L 121.97789 156.432863 
L 122.628501 159.614137 
L 123.279111 157.492185 
L 123.929721 160.797061 
L 124.580332 159.910151 
L 125.230942 161.076985 
L 125.881552 161.630442 
L 126.532163 163.146861 
L 127.182773 163.295317 
L 127.833383 164.43569 
L 128.483993 168.386455 
L 129.134604 166.405764 
L 129.785214 168.691376 
L 130.435824 168.170884 
L 131.086435 172.105311 
L 131.737045 169.445931 
L 132.387655 172.994344 
L 133.038266 171.252428 
L 133.688876 172.391214 
L 134.339486 178.138445 
L 134.990097 173.657808 
L 135.640707 181.267478 
L 136.941927 175.890808 
L 137.592538 178.765707 
L 138.243148 179.565051 
L 139.544369 184.034256 
L 140.194979 183.895779 
L 140.845589 184.422909 
L 141.4962 186.376789 
L 142.14681 183.931785 
L 142.79742 190.355881 
L 143.448031 191.299196 
L 144.098641 187.729301 
L 144.749251 191.217113 
L 145.399862 189.998008 
L 146.050472 192.175819 
L 146.701082 192.577634 
L 147.351692 193.446732 
L 148.002303 195.869234 
L 148.652913 192.970524 
L 149.303523 197.5385 
L 149.954134 198.011658 
L 150.604744 197.234146 
L 151.905965 197.947449 
L 152.556575 192.375474 
L 153.207185 202.008005 
L 153.857796 202.124568 
L 154.508406 201.099304 
L 155.159016 204.419848 
L 155.809627 202.435642 
L 156.460237 203.698134 
L 157.110847 200.642598 
L 157.761457 202.948733 
L 158.412068 203.400336 
L 159.062678 203.486068 
L 159.713288 204.137461 
L 160.363899 205.050914 
L 161.014509 203.814615 
L 161.665119 204.101486 
L 162.31573 203.276012 
L 162.96634 204.786566 
L 163.61695 205.750167 
L 164.267561 206.155704 
L 164.918171 205.543337 
L 165.568781 205.562201 
L 166.219392 204.94033 
L 166.870002 207.238703 
L 167.520612 206.596773 
L 168.171222 208.362047 
L 168.821833 207.78414 
L 169.472443 208.597173 
L 170.123053 208.932131 
L 170.773664 209.847089 
L 171.424274 209.782912 
L 172.074884 209.078113 
L 172.725495 209.807506 
L 173.376105 210.155669 
L 174.026715 211.175119 
L 174.677326 211.0369 
L 175.327936 211.530755 
L 175.978546 210.900216 
L 176.629156 212.269076 
L 177.279767 211.903853 
L 177.930377 212.09786 
L 178.580987 211.798475 
L 179.231598 212.530208 
L 179.882208 213.662521 
L 180.532818 213.717524 
L 181.183429 214.560646 
L 181.834039 213.68793 
L 182.484649 214.113042 
L 183.13526 213.782794 
L 183.78587 212.711041 
L 184.43648 213.910809 
L 185.087091 213.290567 
L 185.737701 214.908664 
L 186.388311 215.047193 
L 187.038921 216.519041 
L 187.689532 214.734387 
L 188.340142 217.004207 
L 188.990752 214.167324 
L 189.641363 215.86471 
L 190.291973 215.033061 
L 190.942583 216.517381 
L 191.593194 216.763629 
L 192.243804 217.571878 
L 192.894414 216.749002 
L 194.846245 216.253002 
L 196.147466 218.166052 
L 196.798076 215.966759 
L 197.448686 217.558024 
L 198.099297 216.393407 
L 199.400517 218.678648 
L 200.051128 219.70185 
L 200.701738 219.771625 
L 201.352348 220.292044 
L 202.002959 219.263121 
L 202.653569 218.494918 
L 203.304179 218.536119 
L 204.6054 219.702479 
L 205.25601 219.509699 
L 205.906621 218.947851 
L 207.207841 219.868839 
L 207.858451 219.839286 
L 208.509062 218.984032 
L 209.159672 219.290406 
L 209.810282 217.750846 
L 210.460893 217.540119 
L 211.111503 233.977297 
L 211.762113 208.899764 
L 212.412724 211.619476 
L 213.063334 219.880725 
L 213.713944 219.93212 
L 215.015165 222.188097 
L 215.665775 221.311453 
L 216.316385 222.360261 
L 216.966996 220.501596 
L 217.617606 219.290994 
L 218.268216 222.368414 
L 218.918827 219.909937 
L 219.569437 219.738639 
L 220.220047 221.521149 
L 220.870658 220.399144 
L 221.521268 220.817814 
L 222.171878 220.273913 
L 223.473099 221.829502 
L 224.77432 221.807732 
L 225.42493 220.451695 
L 226.07554 221.234648 
L 226.72615 221.413265 
L 227.376761 220.04122 
L 228.027371 221.70059 
L 228.677981 221.253471 
L 229.328592 221.572699 
L 229.979202 222.842479 
L 230.629812 222.065462 
L 231.280423 223.043279 
L 231.931033 221.454971 
L 232.581643 222.769663 
L 233.232254 222.159193 
L 233.882864 223.546164 
L 234.533474 223.160625 
L 235.184085 224.166427 
L 236.485305 222.855673 
L 237.786526 234.676142 
L 238.437136 227.192916 
L 239.087746 229.079299 
L 239.738357 150.173067 
L 240.388967 194.794183 
L 241.039577 204.633193 
L 242.340798 173.650149 
L 242.991408 133.240931 
L 243.642019 188.220631 
L 244.292629 201.940292 
L 244.943239 202.150719 
L 245.59385 116.214497 
L 246.24446 186.816301 
L 246.89507 215.509352 
L 247.54568 212.66349 
L 248.196291 185.847608 
L 248.846901 121.065604 
L 249.497511 212.993686 
L 250.148122 205.153293 
L 250.798732 205.441267 
L 251.449342 225.024892 
L 252.099953 227.513304 
L 252.750563 219.009008 
L 253.401173 214.613268 
L 254.051784 229.264601 
L 255.353004 236.508208 
L 256.003615 241.027191 
L 256.654225 240.953282 
L 257.304835 242.29611 
L 257.955445 244.664577 
L 258.606056 244.068543 
L 259.256666 243.868754 
L 259.907276 244.742428 
L 260.557887 244.629654 
L 261.208497 244.719529 
L 261.859107 244.985589 
L 263.160328 245.081108 
L 263.810938 245.309579 
L 264.461549 244.957092 
L 265.112159 245.368732 
L 266.413379 245.535371 
L 267.06399 245.817186 
L 268.36521 246.028603 
L 269.015821 245.847492 
L 270.967652 246.61872 
L 271.618262 246.322072 
L 273.570093 246.502085 
L 274.220703 246.744741 
L 276.823144 247.127131 
L 277.473755 247.081168 
L 279.425586 247.406364 
L 280.076196 247.590779 
L 280.726806 247.928758 
L 282.028027 247.810891 
L 282.678637 247.764397 
L 283.329248 247.926088 
L 283.979858 247.935283 
L 284.630468 248.228885 
L 285.931689 248.475215 
L 289.18474 248.715613 
L 290.485961 249.089309 
L 291.136571 249.159244 
L 291.787182 249.35911 
L 292.437792 249.394255 
L 293.088402 249.158367 
L 293.739013 249.378659 
L 294.389623 249.396281 
L 295.690844 249.869304 
L 296.341454 249.52276 
L 297.642674 249.834974 
L 298.293285 249.555158 
L 298.943895 250.376669 
L 299.594505 250.108605 
L 300.245116 250.1339 
L 300.895726 249.850575 
L 301.546336 250.140296 
L 302.196947 250.114542 
L 304.799388 250.415582 
L 305.449998 250.032465 
L 306.100608 249.460355 
L 306.751219 250.680224 
L 307.401829 250.020347 
L 308.052439 250.525171 
L 308.70305 250.15147 
L 309.35366 250.093034 
L 310.00427 250.265286 
L 310.654881 250.194681 
L 311.305491 250.261096 
L 311.956101 250.885327 
L 312.606712 249.827573 
L 313.907932 250.371371 
L 314.558543 250.089401 
L 315.209153 249.482662 
L 316.510373 250.433512 
L 317.160984 250.565573 
L 317.811594 249.559879 
L 318.462204 250.415948 
L 319.112815 250.075949 
L 320.414035 250.649429 
L 321.064646 249.876469 
L 321.715256 249.891425 
L 322.365866 250.130241 
L 323.016477 249.977714 
L 323.667087 249.376912 
L 324.317697 249.54418 
L 324.968308 251.297884 
L 325.618918 249.241749 
L 326.269528 250.497747 
L 326.920138 249.556813 
L 327.570749 249.938729 
L 328.221359 249.445404 
L 328.871969 249.769817 
L 329.52258 249.892147 
L 330.17319 249.450197 
L 330.8238 250.35912 
L 332.125021 249.716952 
L 332.775631 249.839958 
L 333.426242 250.164242 
L 334.076852 249.694471 
L 334.727462 250.001169 
L 335.378073 251.046369 
L 336.028683 247.526272 
L 336.679293 250.580345 
L 337.980514 249.638653 
L 338.631124 250.296205 
L 339.281734 249.435993 
L 339.932345 250.783618 
L 340.582955 249.392426 
L 341.233565 250.470632 
L 341.884176 249.187915 
L 342.534786 250.621592 
L 343.185396 251.417601 
L 343.836007 248.681308 
L 344.486617 249.535769 
L 345.137227 251.832219 
L 345.787837 247.98188 
L 346.438448 250.045777 
L 347.089058 251.055234 
L 347.739668 250.055261 
L 348.390279 249.725008 
L 349.040889 250.688197 
L 349.691499 250.541994 
L 350.34211 248.415347 
L 351.64333 250.935161 
L 352.293941 249.241883 
L 353.595161 250.672307 
L 354.245772 250.546452 
L 354.896382 250.060899 
L 355.546992 250.085128 
L 356.197602 250.640533 
L 356.848213 249.872428 
L 357.498823 250.984707 
L 358.149433 249.514328 
L 358.800044 250.726899 
L 359.450654 250.987505 
L 360.101264 250.147481 
L 360.751875 249.911701 
L 361.402485 251.644026 
L 362.053095 249.788907 
L 362.703706 250.556574 
L 363.354316 250.406042 
L 364.004926 250.856779 
L 364.655537 250.937367 
L 365.306147 250.685177 
L 365.956757 250.75623 
L 366.607367 251.426811 
L 367.257978 250.165979 
L 367.908588 250.613923 
L 368.559198 251.288354 
L 369.209809 250.686878 
L 369.860419 250.317259 
L 370.511029 252.230458 
L 371.16164 251.227316 
L 371.81225 251.410483 
L 372.46286 249.945692 
L 373.113471 251.21023 
L 373.764081 250.942341 
L 374.414691 250.385116 
L 375.715912 252.368215 
L 376.366522 250.066934 
L 377.667743 252.48553 
L 378.318353 249.466484 
L 378.968963 251.721692 
L 379.619574 251.405113 
L 380.270184 249.491774 
L 380.920794 250.990902 
L 381.571405 251.510399 
L 382.222015 251.357062 
L 382.872625 250.430461 
L 383.523236 251.061187 
L 384.173846 252.02687 
L 384.824456 251.087251 
L 385.475066 250.45687 
L 386.125677 251.630008 
L 386.776287 251.76764 
L 387.426897 250.886595 
L 388.077508 252.098181 
L 388.728118 250.587323 
L 389.378728 251.939716 
L 390.679949 251.065104 
L 391.330559 251.676461 
L 391.98117 251.40434 
L 392.63178 252.296852 
L 393.28239 250.627658 
L 393.933001 251.394058 
L 394.583611 252.767005 
L 395.234221 251.16202 
L 395.884831 251.050322 
L 396.535442 252.384326 
L 397.836662 250.820938 
L 398.487273 251.392238 
L 398.487273 251.392238 
" style="fill:none;stroke:#ff7f0e;stroke-linecap:square;stroke-width:1.5;"/>
   </g>
   <g id="patch_3">
    <path d="M 57.6 307.584 
L 57.6 41.472 
" style="fill:none;stroke:#000000;stroke-linecap:square;stroke-linejoin:miter;stroke-width:0.8;"/>
   </g>
   <g id="patch_4">
    <path d="M 414.72 307.584 
L 414.72 41.472 
" style="fill:none;stroke:#000000;stroke-linecap:square;stroke-linejoin:miter;stroke-width:0.8;"/>
   </g>
   <g id="patch_5">
    <path d="M 57.6 307.584 
L 414.72 307.584 
" style="fill:none;stroke:#000000;stroke-linecap:square;stroke-linejoin:miter;stroke-width:0.8;"/>
   </g>
   <g id="patch_6">
    <path d="M 57.6 41.472 
L 414.72 41.472 
" style="fill:none;stroke:#000000;stroke-linecap:square;stroke-linejoin:miter;stroke-width:0.8;"/>
   </g>
   <g id="text_16">
    <!-- Model loss -->
    <defs>
     <path d="M 9.8125 72.90625 
L 24.515625 72.90625 
L 43.109375 23.296875 
L 61.8125 72.90625 
L 76.515625 72.90625 
L 76.515625 0 
L 66.890625 0 
L 66.890625 64.015625 
L 48.09375 14.015625 
L 38.1875 14.015625 
L 19.390625 64.015625 
L 19.390625 0 
L 9.8125 0 
z
" id="DejaVuSans-77"/>
     <path d="M 45.40625 46.390625 
L 45.40625 75.984375 
L 54.390625 75.984375 
L 54.390625 0 
L 45.40625 0 
L 45.40625 8.203125 
Q 42.578125 3.328125 38.25 0.953125 
Q 33.9375 -1.421875 27.875 -1.421875 
Q 17.96875 -1.421875 11.734375 6.484375 
Q 5.515625 14.40625 5.515625 27.296875 
Q 5.515625 40.1875 11.734375 48.09375 
Q 17.96875 56 27.875 56 
Q 33.9375 56 38.25 53.625 
Q 42.578125 51.265625 45.40625 46.390625 
z
M 14.796875 27.296875 
Q 14.796875 17.390625 18.875 11.75 
Q 22.953125 6.109375 30.078125 6.109375 
Q 37.203125 6.109375 41.296875 11.75 
Q 45.40625 17.390625 45.40625 27.296875 
Q 45.40625 37.203125 41.296875 42.84375 
Q 37.203125 48.484375 30.078125 48.484375 
Q 22.953125 48.484375 18.875 42.84375 
Q 14.796875 37.203125 14.796875 27.296875 
z
" id="DejaVuSans-100"/>
     <path d="M 56.203125 29.59375 
L 56.203125 25.203125 
L 14.890625 25.203125 
Q 15.484375 15.921875 20.484375 11.0625 
Q 25.484375 6.203125 34.421875 6.203125 
Q 39.59375 6.203125 44.453125 7.46875 
Q 49.3125 8.734375 54.109375 11.28125 
L 54.109375 2.78125 
Q 49.265625 0.734375 44.1875 -0.34375 
Q 39.109375 -1.421875 33.890625 -1.421875 
Q 20.796875 -1.421875 13.15625 6.1875 
Q 5.515625 13.8125 5.515625 26.8125 
Q 5.515625 40.234375 12.765625 48.109375 
Q 20.015625 56 32.328125 56 
Q 43.359375 56 49.78125 48.890625 
Q 56.203125 41.796875 56.203125 29.59375 
z
M 47.21875 32.234375 
Q 47.125 39.59375 43.09375 43.984375 
Q 39.0625 48.390625 32.421875 48.390625 
Q 24.90625 48.390625 20.390625 44.140625 
Q 15.875 39.890625 15.1875 32.171875 
z
" id="DejaVuSans-101"/>
     <path d="M 9.421875 75.984375 
L 18.40625 75.984375 
L 18.40625 0 
L 9.421875 0 
z
" id="DejaVuSans-108"/>
     <path id="DejaVuSans-32"/>
    </defs>
    <g transform="translate(204.647812 35.472)scale(0.12 -0.12)">
     <use xlink:href="#DejaVuSans-77"/>
     <use x="86.279297" xlink:href="#DejaVuSans-111"/>
     <use x="147.460938" xlink:href="#DejaVuSans-100"/>
     <use x="210.9375" xlink:href="#DejaVuSans-101"/>
     <use x="272.460938" xlink:href="#DejaVuSans-108"/>
     <use x="300.244141" xlink:href="#DejaVuSans-32"/>
     <use x="332.03125" xlink:href="#DejaVuSans-108"/>
     <use x="359.814453" xlink:href="#DejaVuSans-111"/>
     <use x="420.996094" xlink:href="#DejaVuSans-115"/>
     <use x="473.095703" xlink:href="#DejaVuSans-115"/>
    </g>
   </g>
   <g id="legend_1">
    <g id="patch_7">
     <path d="M 350.279375 78.82825 
L 407.72 78.82825 
Q 409.72 78.82825 409.72 76.82825 
L 409.72 48.472 
Q 409.72 46.472 407.72 46.472 
L 350.279375 46.472 
Q 348.279375 46.472 348.279375 48.472 
L 348.279375 76.82825 
Q 348.279375 78.82825 350.279375 78.82825 
z
" style="fill:#ffffff;opacity:0.8;stroke:#cccccc;stroke-linejoin:miter;"/>
    </g>
    <g id="line2d_16">
     <path d="M 352.279375 54.570437 
L 372.279375 54.570437 
" style="fill:none;stroke:#1f77b4;stroke-linecap:square;stroke-width:1.5;"/>
    </g>
    <g id="line2d_17"/>
    <g id="text_17">
     <!-- Train -->
     <defs>
      <path d="M -0.296875 72.90625 
L 61.375 72.90625 
L 61.375 64.59375 
L 35.5 64.59375 
L 35.5 0 
L 25.59375 0 
L 25.59375 64.59375 
L -0.296875 64.59375 
z
" id="DejaVuSans-84"/>
      <path d="M 41.109375 46.296875 
Q 39.59375 47.171875 37.8125 47.578125 
Q 36.03125 48 33.890625 48 
Q 26.265625 48 22.1875 43.046875 
Q 18.109375 38.09375 18.109375 28.8125 
L 18.109375 0 
L 9.078125 0 
L 9.078125 54.6875 
L 18.109375 54.6875 
L 18.109375 46.1875 
Q 20.953125 51.171875 25.484375 53.578125 
Q 30.03125 56 36.53125 56 
Q 37.453125 56 38.578125 55.875 
Q 39.703125 55.765625 41.0625 55.515625 
z
" id="DejaVuSans-114"/>
      <path d="M 34.28125 27.484375 
Q 23.390625 27.484375 19.1875 25 
Q 14.984375 22.515625 14.984375 16.5 
Q 14.984375 11.71875 18.140625 8.90625 
Q 21.296875 6.109375 26.703125 6.109375 
Q 34.1875 6.109375 38.703125 11.40625 
Q 43.21875 16.703125 43.21875 25.484375 
L 43.21875 27.484375 
z
M 52.203125 31.203125 
L 52.203125 0 
L 43.21875 0 
L 43.21875 8.296875 
Q 40.140625 3.328125 35.546875 0.953125 
Q 30.953125 -1.421875 24.3125 -1.421875 
Q 15.921875 -1.421875 10.953125 3.296875 
Q 6 8.015625 6 15.921875 
Q 6 25.140625 12.171875 29.828125 
Q 18.359375 34.515625 30.609375 34.515625 
L 43.21875 34.515625 
L 43.21875 35.40625 
Q 43.21875 41.609375 39.140625 45 
Q 35.0625 48.390625 27.6875 48.390625 
Q 23 48.390625 18.546875 47.265625 
Q 14.109375 46.140625 10.015625 43.890625 
L 10.015625 52.203125 
Q 14.9375 54.109375 19.578125 55.046875 
Q 24.21875 56 28.609375 56 
Q 40.484375 56 46.34375 49.84375 
Q 52.203125 43.703125 52.203125 31.203125 
z
" id="DejaVuSans-97"/>
      <path d="M 9.421875 54.6875 
L 18.40625 54.6875 
L 18.40625 0 
L 9.421875 0 
z
M 9.421875 75.984375 
L 18.40625 75.984375 
L 18.40625 64.59375 
L 9.421875 64.59375 
z
" id="DejaVuSans-105"/>
      <path d="M 54.890625 33.015625 
L 54.890625 0 
L 45.90625 0 
L 45.90625 32.71875 
Q 45.90625 40.484375 42.875 44.328125 
Q 39.84375 48.1875 33.796875 48.1875 
Q 26.515625 48.1875 22.3125 43.546875 
Q 18.109375 38.921875 18.109375 30.90625 
L 18.109375 0 
L 9.078125 0 
L 9.078125 54.6875 
L 18.109375 54.6875 
L 18.109375 46.1875 
Q 21.34375 51.125 25.703125 53.5625 
Q 30.078125 56 35.796875 56 
Q 45.21875 56 50.046875 50.171875 
Q 54.890625 44.34375 54.890625 33.015625 
z
" id="DejaVuSans-110"/>
     </defs>
     <g transform="translate(380.279375 58.070437)scale(0.1 -0.1)">
      <use xlink:href="#DejaVuSans-84"/>
      <use x="60.865234" xlink:href="#DejaVuSans-114"/>
      <use x="101.978516" xlink:href="#DejaVuSans-97"/>
      <use x="163.257812" xlink:href="#DejaVuSans-105"/>
      <use x="191.041016" xlink:href="#DejaVuSans-110"/>
     </g>
    </g>
    <g id="line2d_18">
     <path d="M 352.279375 69.248562 
L 372.279375 69.248562 
" style="fill:none;stroke:#ff7f0e;stroke-linecap:square;stroke-width:1.5;"/>
    </g>
    <g id="line2d_19"/>
    <g id="text_18">
     <!-- Test -->
     <defs>
      <path d="M 18.3125 70.21875 
L 18.3125 54.6875 
L 36.8125 54.6875 
L 36.8125 47.703125 
L 18.3125 47.703125 
L 18.3125 18.015625 
Q 18.3125 11.328125 20.140625 9.421875 
Q 21.96875 7.515625 27.59375 7.515625 
L 36.8125 7.515625 
L 36.8125 0 
L 27.59375 0 
Q 17.1875 0 13.234375 3.875 
Q 9.28125 7.765625 9.28125 18.015625 
L 9.28125 47.703125 
L 2.6875 47.703125 
L 2.6875 54.6875 
L 9.28125 54.6875 
L 9.28125 70.21875 
z
" id="DejaVuSans-116"/>
     </defs>
     <g transform="translate(380.279375 72.748562)scale(0.1 -0.1)">
      <use xlink:href="#DejaVuSans-84"/>
      <use x="60.818359" xlink:href="#DejaVuSans-101"/>
      <use x="122.341797" xlink:href="#DejaVuSans-115"/>
      <use x="174.441406" xlink:href="#DejaVuSans-116"/>
     </g>
    </g>
   </g>
  </g>
 </g>
 <defs>
  <clipPath id="p08fb727080">
   <rect height="266.112" width="357.12" x="57.6" y="41.472"/>
  </clipPath>
 </defs>
</svg>
